<svg width="48" height="48" viewBox="0 0 48 48" fill="none" xmlns="http://www.w3.org/2000/svg">
<path d="M36.8769 20.0373C36.5963 20.2016 35.3238 21.1072 35.0497 21.3301C35.2203 20.8032 35.2555 20.5109 35.2193 19.9776C35.2033 19.7408 35.119 19.6235 35.1073 20.0267C35.0891 20.6347 34.9163 21.3131 34.5579 21.7344C34.0982 22.1792 33.4859 22.8597 33.0433 23.3824C33.2203 22.5984 33.0486 21.6395 33.039 21.5808C32.9889 21.2629 32.8779 21.264 32.8982 21.6491C32.9025 21.7312 32.9142 21.8144 32.9249 21.8912C33.0187 22.5771 32.7105 23.6395 32.3659 24.2037C32.2219 24.3819 32.079 24.5589 31.9382 24.7349C31.263 25.5765 30.6091 26.3893 29.9894 27.0123C29.7355 27.2683 29.4753 27.5019 29.2118 27.7163C29.6683 26.6699 29.8294 25.0368 29.2491 24.0448C29.1286 23.8389 29.0358 23.8795 29.1563 24.0853C29.3569 24.4288 29.4091 24.9952 29.3579 25.6107C29.1254 25.1477 28.7723 24.5376 28.3222 24.2709C28.1185 24.1493 28.0811 24.2635 28.2849 24.3851C28.7361 24.6539 29.1915 25.7269 29.2662 26.2624C29.1041 27.0677 28.7329 27.8667 28.3873 28.2272L28.3809 28.2347C27.1926 29.0197 26.4566 29.3248 25.7505 29.5947C25.7281 28.7189 25.6502 27.8176 25.4998 26.8789C25.3611 26.016 25.1499 25.0869 24.9046 24.1195C24.9153 24.0821 24.9185 24.0405 24.9142 24C24.8619 23.5328 25.1297 22.4651 25.5265 21.7653C25.6417 21.5627 25.7537 21.3579 25.8657 21.152C27.0433 20.8288 28.1334 20.6133 29.2427 19.8485C29.4593 19.7003 29.6843 19.5232 29.9147 19.3312C29.9254 19.3301 29.9382 19.3248 29.9478 19.3195C30.0683 19.2459 30.3926 19.1797 30.6337 19.1968C31.0923 19.2299 31.5606 19.2245 32.0235 19.2629C32.1451 19.2725 32.1462 19.2096 32.0246 19.2L31.5489 19.152C31.6683 19.0005 31.775 18.7104 32.0246 18.5024C32.1195 18.4245 32.0918 18.3851 31.9937 18.4587C31.6182 18.7381 31.567 19.0464 31.4027 19.1328L30.6262 19.0955C30.4961 19.0859 30.3489 19.0752 30.2134 19.0795C30.2945 19.0101 30.3766 18.9397 30.4587 18.8693C30.767 18.6059 31.2662 18.1547 31.7931 17.7739C32.3915 17.3419 33.0209 17.0144 33.3035 16.9077C33.4177 16.864 33.3921 16.7755 33.2769 16.8171C33.1201 16.8725 32.3905 17.2107 32.2305 17.2981C32.367 17.0475 32.4118 16.9035 32.4449 16.6304C32.4587 16.5088 32.4267 16.4416 32.383 16.6443C32.3158 16.9504 32.1643 17.2768 31.9446 17.456C31.6705 17.6373 31.2961 17.9232 31.023 18.1461C31.1862 17.7664 31.1894 17.2661 31.1915 17.2352C31.1958 17.0699 31.1393 17.0592 31.1137 17.2565C31.1083 17.2992 31.1062 17.3419 31.1051 17.3813C31.087 17.7376 30.831 18.2453 30.6038 18.4992C30.5142 18.5749 30.4257 18.6507 30.3371 18.7275C29.9158 19.0891 29.5083 19.4389 29.1361 19.6949C28.9825 19.7995 28.8299 19.8944 28.6763 19.9776C29.0059 19.4912 29.2417 18.6805 29.0411 18.1248C28.9995 18.0096 28.9483 18.0213 28.9899 18.1365C29.0593 18.3296 29.0326 18.6208 28.9483 18.9269C28.8737 18.6699 28.7521 18.3296 28.5515 18.1515C28.4598 18.0704 28.4299 18.1248 28.5217 18.2059C28.7243 18.384 28.8534 18.9707 28.8406 19.248C28.6827 19.6405 28.4203 20.0085 28.2113 20.1579L28.207 20.1611C27.5158 20.4608 26.7851 20.5984 26.0651 20.7787C26.3649 20.2304 26.7617 19.6875 27.0091 19.1243C27.3953 18.2453 27.6075 17.3621 27.967 16.688L27.9713 16.6848C28.1579 16.5013 28.6283 16.3147 29.1329 16.2475C29.4945 16.3051 30.2635 16.5931 30.5046 16.8565C30.6134 16.9749 30.6827 16.9568 30.5739 16.8384C30.3339 16.5771 29.8838 16.3605 29.5478 16.2155C29.9435 16.2048 30.3222 16.2507 30.5761 16.3744C30.7286 16.4491 30.7414 16.3968 30.5889 16.3232C29.8561 15.9669 28.8086 16.0096 28.1878 16.2368C28.2902 16.0949 28.4065 15.9552 28.5377 15.8197C28.8566 15.488 29.2961 15.1445 29.7505 14.7883C29.8454 14.7136 29.9414 14.6379 30.0374 14.5621C30.3574 14.3851 31.0102 14.2421 31.4731 14.3157C31.5254 14.3243 31.5819 14.3328 31.6363 14.3381C31.8913 14.3616 31.8763 14.2976 31.6609 14.2603C31.6203 14.2528 30.9686 14.128 30.479 14.2048C30.7585 13.9712 31.1169 13.6459 31.343 13.3995C31.5681 13.2107 31.9873 13.1328 32.383 13.1403C32.6454 13.1456 32.5569 13.0944 32.399 13.0784C32.0449 13.0421 31.8571 13.0528 31.5371 13.1339C31.6438 12.9867 32.0555 12.2955 32.1227 12.1419C32.1718 12.0299 32.0545 11.9797 32.0033 12.0907C31.8753 12.3648 31.4731 12.9515 30.9345 13.4784C30.4587 13.9424 29.8923 14.3595 29.5606 14.6197C29.4721 14.6891 29.3825 14.7584 29.2961 14.8277C29.2961 14.6837 29.2769 14.5248 29.2587 14.3829L29.1798 13.5456C29.2843 13.392 29.6843 13.4165 30.0353 13.088C30.127 13.0027 30.0747 12.9632 29.9766 13.0432C29.7163 13.2565 29.3409 13.2949 29.1489 13.3835L29.0667 12.864C29.0486 12.7317 28.9665 12.7157 28.9846 12.8491C29.0539 13.3525 29.0657 13.8507 29.1275 14.3488C29.1595 14.6112 29.0881 14.9397 28.9953 15.0485C28.9867 15.0581 28.9825 15.0699 28.9803 15.0816C28.7403 15.2789 28.4961 15.4539 28.3318 15.6651C27.3302 16.9557 26.9355 18.6464 26.6187 19.1168C26.3339 18.5419 25.6769 18.2475 25.5265 17.0539C25.4753 16.6496 25.2865 16.6528 25.3654 17.0528C25.6705 18.5803 26.4107 18.7499 26.4321 19.3664L25.2118 21.6491C24.9974 22.0267 24.7574 22.4523 24.575 22.8651C24.4833 22.5227 24.3883 22.176 24.2934 21.8272C23.9425 20.5323 23.3078 18.4064 22.9163 16.2912C23.0209 16.1717 23.1307 16.0576 23.2534 15.9541L23.2566 15.9531C23.4177 15.8827 23.7547 15.8795 24.0854 15.9595C24.2966 16.0821 24.7062 16.4459 24.7937 16.6677C24.8331 16.7669 24.8801 16.7723 24.8406 16.6731C24.7542 16.4523 24.5249 16.2091 24.3499 16.0384C24.5995 16.1269 24.8246 16.2464 24.9537 16.384C25.0315 16.4661 25.0518 16.4384 24.9739 16.3552C24.6027 15.9573 23.9393 15.7323 23.4977 15.7248C23.5958 15.6608 23.7014 15.6021 23.8166 15.5488C24.095 15.4187 24.4513 15.3099 24.8203 15.1968C24.8982 15.1733 24.975 15.1488 25.0529 15.1253C25.295 15.0912 25.7366 15.1595 26.0075 15.3152C26.0374 15.3333 26.0705 15.3525 26.1035 15.3685C26.2571 15.4443 26.2625 15.4005 26.1377 15.3259C26.1142 15.312 25.7377 15.0773 25.4145 15.008C25.6449 14.9291 25.9457 14.8128 26.1451 14.7125C26.3307 14.6485 26.6102 14.7008 26.8555 14.8011C27.0187 14.8672 26.975 14.8139 26.8801 14.7669C26.6678 14.6603 26.5483 14.6219 26.3297 14.5952C26.4321 14.528 26.8534 14.1963 26.9323 14.1173C26.9899 14.0587 26.9291 14 26.8705 14.0565C26.7243 14.1963 26.3329 14.4661 25.871 14.6656C25.4635 14.8405 25.0102 14.9643 24.7403 15.0475C24.6678 15.0699 24.5963 15.0912 24.5259 15.1136C24.5601 15.024 24.5857 14.9205 24.6091 14.8277L24.7617 14.2859C24.8641 14.2155 25.1073 14.3264 25.4038 14.2059C25.4817 14.1749 25.4582 14.1376 25.3782 14.1643C25.1649 14.2347 24.9217 14.1696 24.7798 14.1781L24.8534 13.8347C24.8737 13.7472 24.8267 13.7173 24.8054 13.8059C24.7275 14.1365 24.6155 14.4491 24.5345 14.7755C24.4918 14.9461 24.3681 15.1339 24.2849 15.1797C24.2774 15.184 24.2721 15.1893 24.2678 15.1968C24.0705 15.2619 23.8849 15.3291 23.7238 15.4048C23.3771 15.5669 23.1019 15.7717 22.863 16.0032C22.7755 15.5019 22.703 15.0048 22.6454 14.5237C23.7195 14.0043 24.7286 13.5904 25.6598 12.6549C25.8454 12.4693 26.0342 12.2539 26.2262 12.0224C26.2369 12.0192 26.2475 12.0128 26.2561 12.0043C26.3606 11.9093 26.6678 11.7845 26.9078 11.7579C27.3643 11.7067 27.8241 11.6149 28.2859 11.568C28.4075 11.5552 28.3969 11.4933 28.2753 11.5061L27.7985 11.5467C27.8881 11.376 27.9393 11.0709 28.1473 10.8203C28.2262 10.7264 28.1921 10.6933 28.1089 10.7829C27.791 11.1264 27.7974 11.4389 27.6513 11.5541L26.8801 11.6608C26.7499 11.6757 26.6038 11.6917 26.4715 11.7216C26.5387 11.6384 26.6059 11.5541 26.6742 11.4699C26.9291 11.1541 27.3366 10.6187 27.7846 10.1483C28.2934 9.61386 28.8513 9.17652 29.1105 9.01972C29.215 8.95572 29.1734 8.87359 29.0678 8.93546C28.9238 9.01866 28.2689 9.48479 28.1281 9.59999C28.2155 9.32906 28.2337 9.17866 28.2155 8.90452C28.207 8.78292 28.1633 8.72212 28.1569 8.92906C28.1473 9.24266 28.0577 9.59146 27.8742 9.80799C27.6374 10.0363 27.3227 10.3861 27.0955 10.6549C27.1862 10.2517 27.0977 9.75892 27.0934 9.72799C27.0667 9.56372 27.0102 9.56479 27.0209 9.76319C27.023 9.80586 27.0294 9.84852 27.0347 9.88692C27.0827 10.24 26.9238 10.7872 26.7478 11.0773C26.6731 11.168 26.6006 11.2587 26.5281 11.3504C26.1793 11.7835 25.8433 12.2016 25.5254 12.5216C25.3942 12.6528 25.2609 12.7733 25.1254 12.8843C25.3601 12.3456 25.4433 11.5051 25.1446 10.9952C25.0827 10.8896 25.0347 10.9109 25.0966 11.0155C25.2001 11.1925 25.2278 11.4837 25.2011 11.7995C25.0806 11.5605 24.8993 11.248 24.6689 11.1104C24.5643 11.0475 24.5451 11.1072 24.6497 11.1691C24.8811 11.3067 25.1158 11.8603 25.1542 12.1344C25.071 12.5493 24.8801 12.9589 24.7019 13.1445L24.6987 13.1488C24.0438 13.5904 23.3131 13.8656 22.6059 14.1952C22.175 12.6827 22.911 11.2171 22.4513 9.54452C22.5697 9.40266 22.6966 9.26826 22.8395 9.14772L22.8427 9.14666C23.0027 9.07626 23.3409 9.07306 23.6715 9.15306C23.8827 9.27572 24.2934 9.63946 24.3798 9.86132C24.4193 9.96159 24.4662 9.96586 24.4267 9.86666C24.3403 9.64586 24.111 9.40266 23.9361 9.23199C24.1857 9.32052 24.4107 9.43999 24.5398 9.57759C24.6166 9.66079 24.6379 9.63199 24.5601 9.54879C24.1889 9.15092 23.5254 8.92586 23.0838 8.91839C23.1819 8.85439 23.2875 8.79572 23.4027 8.74239C23.6811 8.61226 24.0374 8.50346 24.4065 8.39039C24.4843 8.36692 24.5622 8.34239 24.639 8.31892C24.8811 8.28479 25.3227 8.35306 25.5937 8.50879C25.6235 8.52692 25.6566 8.54612 25.6897 8.56212C25.8433 8.63786 25.8486 8.59412 25.7238 8.51946C25.7003 8.50559 25.3238 8.27092 25.0006 8.20159C25.231 8.12266 25.5318 8.00639 25.7313 7.90612C25.9169 7.84212 26.1963 7.89439 26.4417 7.99466C26.6049 8.06079 26.5611 8.00746 26.4673 7.95946C26.255 7.85279 26.1355 7.81439 25.9169 7.78772C26.0193 7.72052 26.4406 7.38879 26.5195 7.30986C26.5771 7.25119 26.5163 7.19252 26.4577 7.24906C26.3115 7.38879 25.9211 7.65866 25.4582 7.85812C25.0507 8.03306 24.5974 8.15679 24.3275 8.23999C24.255 8.26239 24.1835 8.28372 24.1131 8.30612C24.1473 8.21652 24.1739 8.11306 24.1963 8.02026L24.3489 7.47839C24.4513 7.40799 24.6945 7.51892 24.991 7.39839C25.0689 7.36746 25.0454 7.33012 24.9654 7.35679C24.7521 7.42719 24.5089 7.36212 24.367 7.37066L24.4406 7.02719C24.4609 6.93972 24.4139 6.90986 24.3926 6.99839C24.3147 7.32906 24.2027 7.64159 24.1217 7.96799C24.079 8.13866 23.9553 8.32639 23.8721 8.37226C23.8646 8.37652 23.8593 8.38186 23.855 8.38932C23.6577 8.45439 23.4721 8.52159 23.311 8.59732C22.9238 8.77759 22.6262 9.01332 22.367 9.27679C22.3073 9.10186 22.2369 8.92052 22.1611 8.73386C22.1654 8.72319 22.1654 8.71039 22.1633 8.69866C22.1345 8.55892 22.2262 8.23466 22.3798 8.01919C22.6699 7.61066 22.9163 7.17759 23.2171 6.76692C23.2961 6.65919 23.2161 6.63359 23.1382 6.74132L22.8193 7.16052C22.6923 6.99092 22.3809 6.77866 22.2529 6.46719C22.2049 6.34986 22.1409 6.35946 22.1814 6.47786C22.3329 6.93332 22.6966 7.10186 22.7169 7.28639L22.2486 7.98612C22.1665 8.10239 22.0737 8.23359 22.0054 8.35946C21.9606 8.25812 21.9158 8.15466 21.871 8.05119C21.7025 7.66399 21.4006 7.02826 21.2033 6.39466C20.9793 5.67466 20.9035 4.96746 20.9217 4.66559C20.9281 4.54292 20.8022 4.53226 20.7926 4.65386C20.7787 4.82026 20.8129 5.62346 20.8363 5.80479C20.5921 5.58186 20.4331 5.48266 20.1046 5.34612C19.9585 5.28532 19.855 5.28852 20.0886 5.40799C20.4406 5.58932 20.7734 5.85706 20.8822 6.13012C20.9643 6.45439 21.1243 6.90986 21.2587 7.24906C20.8651 6.94932 20.2315 6.75092 20.1931 6.73599C19.9851 6.66666 19.9425 6.71572 20.1782 6.81599C20.2294 6.83732 20.2827 6.85546 20.3318 6.87359C20.7745 7.02932 21.2801 7.46452 21.4785 7.77279C21.5265 7.88479 21.5745 7.99679 21.6235 8.10666C21.8539 8.63679 22.0769 9.14772 22.2017 9.59039C22.2518 9.77279 22.2881 9.94986 22.3115 10.1237C21.8721 9.63092 20.9718 9.09546 20.1569 9.06026C19.9883 9.05279 19.9755 9.10506 20.1441 9.11252C20.4267 9.12426 20.7809 9.26292 21.1243 9.46026C20.7585 9.42826 20.2603 9.40586 19.9254 9.52106C19.7729 9.57332 19.8262 9.62239 19.9787 9.56906C20.3147 9.45279 21.1297 9.56372 21.4742 9.68426C21.7633 9.89439 22.0097 10.1472 22.1579 10.3659C22.5462 11.0016 21.9478 13.1232 22.1025 14.2528L22.2177 15.3067C22.2507 15.5413 22.2902 15.7995 22.3329 16.0693C21.8582 15.8848 21.3483 15.664 20.5526 15.1381L20.5483 15.1328C20.3041 14.8789 20.0427 14.3157 19.9275 13.7483C19.9809 13.3696 20.3019 12.6133 20.6209 12.4245C20.7649 12.3392 20.7371 12.2581 20.5942 12.3445C20.2774 12.5333 20.0267 12.9632 19.8625 13.2885C19.8273 12.8544 19.8646 12.4555 20.0065 12.2133C20.0907 12.0683 20.0257 12.0395 19.9403 12.1845C19.5318 12.8832 19.6459 14.0352 19.967 14.7744C19.7814 14.6219 19.5979 14.4587 19.4198 14.2784C18.9814 13.8379 18.5206 13.264 18.0449 12.6709C17.9446 12.5472 17.8454 12.4224 17.7441 12.2965C17.5009 11.8987 17.2833 11.1499 17.3494 10.6656C17.3558 10.6112 17.3654 10.5525 17.3686 10.4939C17.3825 10.224 17.3035 10.2208 17.2683 10.4459C17.2619 10.4885 17.1414 11.1637 17.2662 11.7163C16.9537 11.3472 16.5227 10.8683 16.1974 10.5547C15.9446 10.2571 15.823 9.77919 15.8091 9.35039C15.8006 9.06559 15.7409 9.14772 15.7302 9.31412C15.7046 9.69066 15.7291 9.89652 15.8497 10.2688C15.6566 10.1109 14.7585 9.47306 14.5622 9.35572C14.4161 9.27146 14.3606 9.38559 14.5025 9.47199C14.8566 9.68639 15.6235 10.2859 16.3201 11.0187C16.9345 11.664 17.4945 12.3979 17.8422 12.8309C17.9371 12.9472 18.0289 13.0613 18.1206 13.1755C17.9382 13.1371 17.7387 13.1136 17.5606 13.0944L16.5057 12.9483C16.3041 12.7915 16.3137 12.3627 15.8774 11.8901C15.7633 11.7675 15.7163 11.8123 15.8241 11.9424C16.1089 12.2837 16.1793 12.704 16.3019 12.9387L15.6491 12.8832C15.4817 12.8661 15.4689 12.9515 15.6353 12.9685C16.2689 13.0336 16.8982 13.1584 17.5243 13.2288C17.8539 13.2661 18.2742 13.4357 18.4182 13.5669C18.431 13.5776 18.4459 13.5872 18.4609 13.5925C18.7243 13.9083 18.9825 14.2048 19.2374 14.4587C20.5185 15.7461 21.0049 15.9915 22.4374 16.6912C22.5803 17.5115 22.7531 18.3861 22.927 19.0944C21.8123 17.8261 19.8315 16.4085 18.1494 16.2347C17.8838 16.2069 17.5894 16.2016 17.2779 16.2059C17.2694 16.1973 17.2577 16.1931 17.2459 16.1909C17.1051 16.1664 16.8374 15.9616 16.6934 15.7397C16.4193 15.3195 16.1078 14.9323 15.8358 14.5024C15.7643 14.3893 15.711 14.4544 15.7825 14.5664L16.0555 15.0165C15.8507 15.0731 15.5403 15.2853 15.2033 15.2907C15.0763 15.2917 15.0614 15.3557 15.1873 15.3611C15.6662 15.3867 15.9563 15.1104 16.1355 15.1605L16.6155 15.8528C16.6934 15.9723 16.7809 16.1067 16.8737 16.2155C16.7627 16.2197 16.6497 16.224 16.5377 16.2283C16.1153 16.2421 15.4134 16.2901 14.751 16.2411C13.999 16.1856 13.3131 15.9968 13.039 15.8688C12.9281 15.8176 12.8715 15.9307 12.9814 15.9851C13.1307 16.0587 13.8902 16.3221 14.0683 16.3669C13.7707 16.512 13.6214 16.624 13.3729 16.8789C13.263 16.9931 13.2278 17.0901 13.4251 16.9163C13.7238 16.6549 14.0939 16.4437 14.3883 16.4427C14.7201 16.4853 15.2022 16.5035 15.567 16.5035C15.1446 16.7595 14.7265 17.2757 14.6998 17.3067C14.559 17.4752 14.5889 17.5328 14.7691 17.3504C14.8075 17.3109 14.8449 17.2683 14.879 17.2288C15.1862 16.8747 15.7771 16.5632 16.1366 16.4917C16.2593 16.4885 16.3798 16.4843 16.5014 16.4789C17.0785 16.4587 17.6363 16.4395 18.0939 16.4864C18.2817 16.5067 18.4609 16.5376 18.6305 16.5803C18.0107 16.8085 17.183 17.4496 16.8513 18.1952C16.7819 18.3499 16.8257 18.3808 16.895 18.2261C17.0091 17.968 17.2683 17.6885 17.5787 17.4411C17.4145 17.7696 17.2118 18.2251 17.1958 18.5792C17.1894 18.7403 17.2534 18.7083 17.2609 18.5472C17.2758 18.192 17.6779 17.4741 17.9169 17.1979C18.3457 16.9248 18.8246 16.7637 19.087 16.784H19.0923C20.8267 17.4517 22.7115 19.2363 23.3878 20.8597C23.4891 21.2373 23.5905 21.6128 23.6929 21.9861C23.9553 22.9483 24.2123 23.8923 24.431 24.7915C24.1195 24.6677 23.7761 24.5088 23.2609 24.1685L23.2577 24.1643C23.0859 23.9861 22.9025 23.5893 22.8214 23.1904C22.8587 22.9237 23.0849 22.3925 23.3089 22.2592C23.4102 22.1995 23.391 22.1419 23.2907 22.2027C23.0678 22.3349 22.8918 22.6379 22.7766 22.8661C22.7521 22.5611 22.7777 22.2805 22.8779 22.1099C22.9377 22.0075 22.8918 21.9872 22.831 22.0896C22.5441 22.5813 22.6241 23.3909 22.8502 23.9104C22.719 23.8037 22.591 23.6885 22.4651 23.5616C22.1569 23.2523 21.8337 22.848 21.4977 22.4309C21.4273 22.3445 21.3569 22.256 21.2865 22.1675C21.1158 21.888 20.9622 21.3611 21.0091 21.0208C21.0145 20.9824 21.0198 20.9408 21.0219 20.9003C21.0315 20.7104 20.9761 20.7083 20.9515 20.8661C20.9473 20.896 20.863 21.3707 20.9505 21.76C20.7307 21.5008 20.4278 21.1637 20.1995 20.9429C20.0214 20.7339 19.9361 20.3979 19.9265 20.096C19.9201 19.8955 19.8785 19.9541 19.871 20.0704C19.8529 20.336 19.8699 20.48 19.9553 20.7413C19.8198 20.6304 19.1883 20.1813 19.0497 20.0992C18.9473 20.0395 18.9078 20.1205 19.0081 20.1813C19.2577 20.3317 19.7963 20.7541 20.2859 21.2693C20.7179 21.7227 21.1115 22.2389 21.3558 22.5429C21.4219 22.624 21.487 22.7051 21.5521 22.7851C21.4241 22.7584 21.2833 22.7413 21.1585 22.7275L20.4161 22.6251C20.2742 22.5152 20.2806 22.2133 19.9745 21.8805C19.8945 21.7941 19.8614 21.8261 19.9371 21.9168C20.1366 22.1568 20.1867 22.4523 20.2731 22.6165L19.8145 22.5771C19.6971 22.5653 19.6875 22.6251 19.8049 22.6368C20.2497 22.6827 20.6923 22.7701 21.1329 22.8192C21.3654 22.8459 21.6598 22.9643 21.7611 23.0571C21.7697 23.0645 21.7803 23.0709 21.791 23.0752C21.9766 23.2971 22.1579 23.5051 22.3371 23.6843C23.2235 24.5749 23.5681 24.7563 24.5377 25.2299C24.6785 25.8357 24.7979 26.4181 24.8865 26.9685C24.9846 27.5787 25.0102 28.7541 25.0422 29.3355L22.9067 26.2315C22.8886 26.1632 22.8555 26.1131 22.8086 26.1056C22.1526 26.0565 21.5777 26.0544 20.4001 25.7077L20.3947 25.7035C20.0865 25.5328 19.6715 25.0699 19.3953 24.5611C19.3355 24.1835 19.4209 23.3664 19.6694 23.0923C19.7814 22.9685 19.7323 22.8992 19.6203 23.0229C19.3729 23.296 19.2598 23.7803 19.1979 24.1397C19.0379 23.7355 18.9558 23.3429 19.0198 23.0699C19.0582 22.9067 18.9867 22.8971 18.9473 23.0613C18.7617 23.8496 19.2086 24.9173 19.7323 25.5296C19.5094 25.4389 19.2865 25.3355 19.0635 25.216C18.5153 24.9237 17.9062 24.5099 17.2769 24.0821C17.1446 23.9936 17.0123 23.9029 16.879 23.8123C16.5302 23.504 16.1025 22.8512 16.0235 22.3691C16.0139 22.3157 16.0054 22.256 15.9915 22.1995C15.9254 21.9371 15.8497 21.9584 15.8817 22.1835C15.8881 22.2261 15.9713 22.9067 16.2529 23.3984C15.8454 23.1371 15.2939 22.8053 14.8907 22.6016C14.5611 22.3915 14.3051 21.9701 14.1665 21.5637C14.0747 21.2949 14.0417 21.3899 14.0801 21.552C14.1665 21.92 14.2497 22.1099 14.4747 22.4299C14.2433 22.3349 13.1979 21.9893 12.9761 21.9349C12.8118 21.8965 12.7926 22.0224 12.9537 22.064C13.3558 22.1653 14.2646 22.5141 15.1457 23.0101C15.9222 23.4464 16.6731 23.984 17.1318 24.2965C17.2566 24.3797 17.3782 24.4629 17.4998 24.544C17.3142 24.5611 17.1169 24.5973 16.9398 24.6304L15.8881 24.8011C15.6491 24.7104 15.5329 24.2976 14.9771 23.9733C14.8321 23.8891 14.8001 23.9467 14.9419 24.0384C15.3142 24.2816 15.5051 24.6624 15.6907 24.8501L15.0497 24.9877C14.8854 25.0208 14.8971 25.1061 15.0614 25.0731C15.6865 24.9493 16.3243 24.8843 16.9441 24.7669C17.2705 24.7061 17.7217 24.7445 17.8977 24.8277C17.9126 24.8341 17.9307 24.8384 17.9457 24.8395C18.2902 25.0645 18.6241 25.2715 18.943 25.44C19.6523 25.8187 20.1526 26.0469 20.6262 26.2069C20.1569 26.2784 19.7217 26.3829 19.4134 26.5152C19.0401 26.6752 19.1595 26.8416 19.5329 26.6816C20.3585 26.3264 21.8571 26.4416 22.3393 26.7093C22.5195 26.9056 22.7201 27.1296 22.927 27.3696C22.4865 27.4432 22.0417 27.5733 21.5841 27.8037C21.3451 27.9243 21.0934 28.0779 20.8342 28.2496C20.8225 28.2485 20.8097 28.2496 20.799 28.2549C20.6678 28.3104 20.3318 28.2827 20.0918 28.1739C19.6342 27.9669 19.1627 27.8091 18.7019 27.5936C18.5803 27.5371 18.5707 27.6192 18.6923 27.6768L19.1638 27.9083C19.0219 28.0661 18.8737 28.4128 18.5931 28.5984C18.4875 28.6688 18.5089 28.7296 18.6187 28.6677C19.0358 28.4309 19.1307 28.0416 19.3089 27.9861L20.0865 28.3093C20.2166 28.368 20.3627 28.4331 20.4993 28.4768C20.4075 28.5397 20.3158 28.6037 20.223 28.6677C19.8763 28.9077 19.3099 29.3259 18.7254 29.6416C18.063 30.0011 17.3835 30.2112 17.0838 30.2517C16.9622 30.2688 16.9761 30.3947 17.0977 30.3808C17.2641 30.3616 18.0459 30.1739 18.2187 30.1152C18.0459 30.3979 17.9809 30.5728 17.9105 30.9227C17.8795 31.0773 17.9019 31.1776 17.9745 30.9259C18.0843 30.5451 18.2827 30.1675 18.5302 30.0085C18.8321 29.8667 19.2491 29.6203 19.5553 29.4229C19.3377 29.8667 19.263 30.5269 19.2587 30.5675C19.231 30.784 19.2865 30.8171 19.3398 30.5675C19.3515 30.5141 19.359 30.4576 19.3665 30.4053C19.4337 29.9413 19.7633 29.3611 20.0278 29.1072C20.1281 29.0379 20.2283 28.9696 20.3286 28.9003C20.8033 28.5717 21.2619 28.2539 21.6737 28.0469C21.8422 27.9616 22.0097 27.8923 22.1761 27.8368C21.7761 28.3627 21.4251 29.3504 21.5478 30.1557C21.5734 30.3232 21.6267 30.3253 21.6011 30.1579C21.5585 29.8784 21.6267 29.504 21.7547 29.1285C21.7931 29.4933 21.8667 29.9872 22.0459 30.2933C22.127 30.432 22.1643 30.3712 22.0833 30.2325C21.9041 29.9253 21.8561 29.1051 21.9083 28.7424C22.1227 28.2805 22.4395 27.8869 22.6699 27.7621L22.6742 27.7589C22.8491 27.7237 23.0251 27.7003 23.2011 27.6864C23.983 28.6187 24.6571 29.9851 24.7094 30.5664C24.6113 33.3557 23.8059 36.0064 23.3089 38.7189C21.9307 39.6491 16.6091 38.0064 14.5643 39.3109C14.1739 39.5595 13.903 39.9147 13.8017 40.4171C12.9099 40.6752 12.7169 41.8123 13.1606 42.3936C12.8459 42.7317 12.7467 42.9845 12.7542 43.2075C12.2475 43.3899 12.0982 44.0426 12.3307 44.3819C12.1366 44.5749 12.063 44.7211 12.0513 44.8501V44.9248C12.0737 45.1797 12.319 45.3792 12.2838 45.7707L12.303 45.7749C12.3627 45.1264 11.8411 45.024 12.3958 44.464C12.6433 44.7392 13.1307 44.9248 12.687 45.4517L12.6923 45.4859C12.8278 45.3237 12.8961 45.1915 12.9185 45.0805C13.3483 45.1765 12.8705 45.9157 13.0294 46.2891L13.0433 46.2859C12.8993 45.9477 13.5201 45.0624 12.9259 44.9707C12.9025 44.6485 12.4769 44.4864 12.3787 44.2037C12.2625 43.8624 12.3926 43.4656 12.7745 43.3451C12.8673 43.744 13.2651 44.0746 13.2534 44.6987L13.2865 44.7061C13.3057 43.6288 12.4257 43.4603 13.279 42.529C13.7238 42.9877 14.5537 43.2939 13.8838 44.1707L13.8955 44.2272C14.1003 43.9595 14.1974 43.7397 14.2198 43.5531C14.9441 43.712 14.2422 44.9387 14.5526 45.5595L14.5643 45.5563L14.5739 45.5541C14.5707 45.5467 14.5675 45.5392 14.5643 45.5317C14.4918 45.3621 14.5174 45.1168 14.5643 44.8522C14.6507 44.368 14.8075 43.8176 14.5643 43.5403C14.4907 43.456 14.3798 43.3963 14.2177 43.3717C14.1387 42.8395 13.4113 42.5685 13.215 42.0992C12.9793 41.5339 13.1467 40.8747 13.7665 40.6741C13.759 40.7648 13.7537 40.8587 13.7547 40.9589C13.7643 41.5701 14.1985 41.9552 14.5633 42.3616C14.8438 42.6731 15.0838 42.9973 15.0614 43.4443L15.1275 43.472C15.1553 42.9258 14.8801 42.5525 14.5867 42.1995C14.6635 42.2336 14.7649 42.2677 14.9099 42.3104C16.3393 42.7328 16.0939 43.8101 15.9787 44.8501L16.0225 44.8789C16.0609 44.5344 16.1259 44.208 16.1526 43.9008C16.5259 44.0085 16.655 44.3893 16.543 44.7157C16.4513 44.9824 16.0491 45.136 16.0278 45.4389C15.4689 45.5253 16.0534 46.3605 15.9179 46.6784L15.9307 46.6816C16.0801 46.3296 15.6299 45.632 16.0353 45.5424C16.0566 45.648 16.1206 45.7728 16.2486 45.9253L16.2529 45.8933C15.8347 45.3952 16.2934 45.2213 16.527 44.9611C17.0507 45.4901 16.559 45.5861 16.6155 46.1984L16.6337 46.1941C16.5803 45.6117 17.1862 45.4805 16.5878 44.8853C16.8118 44.56 16.6625 43.9275 16.1633 43.7696C16.1878 43.2672 16.0822 42.8139 15.5521 42.4053C15.4401 42.3189 15.3014 42.2581 15.151 42.2037C15.1211 41.9904 15.4102 41.5466 15.0955 41.4986C15.0827 41.3162 14.8417 41.2245 14.7862 41.0645C14.7297 40.8981 14.7755 40.7093 14.9281 40.6155C15.5393 40.9557 16.5345 41.0677 16.191 42.3275L16.2475 42.3296C16.559 41.1861 16.0939 40.9632 15.3771 40.6336C15.0177 40.4683 14.4715 40.256 14.7318 39.7355C14.7979 39.6032 14.9099 39.4741 15.0539 39.3589C15.279 39.2906 15.5318 39.2501 15.8059 39.2288C15.7665 39.2682 15.7323 39.3088 15.7046 39.3504C15.663 39.4133 15.6363 39.4784 15.6289 39.5424C15.5638 40.1003 16.7553 39.84 16.3446 40.7883L16.3745 40.7893C16.6411 40.1739 16.4097 40.0544 16.0523 39.8763C15.8731 39.7877 15.5979 39.6736 15.7825 39.3931C15.8219 39.3333 15.8795 39.2747 15.9489 39.2203C16.4363 39.1968 16.9857 39.232 17.5638 39.2928C16.975 39.7056 16.8897 40.608 17.2683 41.105C16.5793 41.8464 16.9206 42.1792 17.1723 42.673C17.0486 42.7584 16.9451 42.8587 16.8758 42.9632C16.8267 43.0379 16.7947 43.1157 16.7851 43.1936C16.7062 43.8635 18.1366 43.5499 17.6438 44.688L17.6801 44.689C18.0001 43.9509 17.7227 43.8069 17.2939 43.5936C17.0795 43.4869 16.7478 43.3504 16.9707 43.0133C17.0273 42.928 17.1137 42.8437 17.2193 42.7691C17.3025 42.9504 17.3654 43.1552 17.3611 43.409L17.3942 43.4176C17.4134 42.3403 16.5334 42.1717 17.3867 41.2395C17.8315 41.6981 18.6614 42.0043 17.9915 42.8811L18.0033 42.9376C18.2081 42.6699 18.3051 42.4501 18.3275 42.2635C19.0518 42.4224 18.351 43.6491 18.6603 44.2699L18.6827 44.2645C18.4022 43.7045 19.3227 42.2336 18.3265 42.0821C18.2475 41.5499 17.5201 41.2789 17.3238 40.8096C17.0753 40.2165 17.2726 39.5189 17.9713 39.3579V39.3397C18.4758 39.4005 18.9963 39.4752 19.5126 39.5413C19.7131 39.7077 19.7697 39.9915 19.6843 40.2421C19.5926 40.5088 19.1905 40.6624 19.1691 40.9653C18.6102 41.0517 19.1947 41.8869 19.0593 42.2048L19.0721 42.208C19.2214 41.8549 18.7713 41.1584 19.1766 41.0688C19.1979 41.1744 19.2619 41.2992 19.3899 41.4517L19.3942 41.4197C18.9761 40.9216 19.4347 40.7477 19.6683 40.4875C20.1921 41.0165 19.6993 41.1125 19.7558 41.7248L19.7739 41.7205C19.7206 41.1381 20.3265 41.0069 19.7281 40.4117C19.8817 40.1888 19.8603 39.8229 19.6705 39.5627C20.1537 39.6235 20.6305 39.6768 21.0859 39.7045C20.6635 40.1323 20.6283 40.8736 20.9537 41.3003C20.8054 41.4603 20.7073 41.6 20.6475 41.7258C19.7675 41.9488 19.4177 42.9749 19.8849 43.712C18.9601 44.7072 20.0289 44.9269 20.0118 45.8997L20.0427 45.9072C20.0609 44.8843 19.2257 44.7243 20.0353 43.84C20.4577 44.2752 21.2459 44.5664 20.6102 45.3984L20.6219 45.4517C20.8161 45.1968 20.9089 44.9888 20.9302 44.8117C21.6182 44.9632 20.9515 46.1269 21.2459 46.7157L21.2673 46.7104C21.0017 46.1781 21.8742 44.7819 20.9291 44.6379C20.8545 44.1323 20.1643 43.8763 19.9777 43.4293C19.7451 42.8725 19.9254 42.2197 20.5697 42.0565C20.5761 42.5067 21.0539 42.8203 21.0422 43.4869L21.0731 43.4944C21.0913 42.4715 20.2561 42.3115 21.0657 41.4272C21.4881 41.8624 22.2763 42.1536 21.6406 42.9856L21.6523 43.0389C21.8465 42.784 21.9393 42.576 21.9606 42.3989C22.6486 42.5504 21.9819 43.7141 22.2763 44.3029L22.2977 44.2976C22.1654 44.0331 22.3297 43.5264 22.4118 43.0656C22.8481 43.216 22.9953 43.6779 22.8598 44.0747C22.7446 44.4096 22.2411 44.6027 22.2134 44.9813C21.5115 45.0891 22.2454 46.1376 22.0758 46.5365L22.0918 46.5408C22.2795 46.0992 21.7142 45.2245 22.2219 45.1115C22.2486 45.2448 22.3286 45.4005 22.4897 45.5915L22.495 45.5509C21.9713 44.9259 22.5462 44.7083 22.8385 44.3808C23.4955 45.0443 22.8779 45.1648 22.9483 45.9328L22.9707 45.9275C22.9035 45.1979 23.6641 45.0315 22.9142 44.2848C23.1873 43.8891 23.0187 43.1317 22.4374 42.9045C22.4886 42.5056 22.4395 42.1707 22.0193 42.1067C21.9446 41.6011 21.3142 41.4443 21.1275 40.9984C20.927 40.5195 21.0326 39.968 21.4774 39.7205C22.0427 39.7355 22.5643 39.7003 23.0049 39.5787C23.4241 39.7227 23.5787 40.1248 23.4454 40.4843C23.3302 40.7936 22.8267 40.9707 22.799 41.3216C22.0971 41.4208 22.831 42.3883 22.6614 42.7563L22.6774 42.7595C22.8651 42.352 22.2998 41.5456 22.8075 41.44C22.8342 41.5627 22.9142 41.7066 23.0753 41.8827L23.0806 41.8453C22.5569 41.2693 23.1318 41.0677 23.4241 40.7659C24.0811 41.3781 23.4635 41.4891 23.535 42.1973L23.5574 42.192C23.4902 41.5189 24.2507 41.3653 23.4998 40.6763C23.7377 40.3573 23.6406 39.7856 23.2257 39.5051C23.967 39.232 24.1302 39.232 24.8715 39.5051C24.4577 39.7856 24.3606 40.3573 24.5985 40.6763C24.3691 40.8864 24.2817 41.0464 24.2667 41.1872C23.8763 41.2949 23.7579 41.7483 23.9318 41.9808C23.4721 42.4032 23.9382 42.496 23.8966 42.9088L23.9105 42.912C23.9542 42.4789 23.5755 42.4107 23.9777 42.0352C24.1569 42.2197 24.5089 42.3435 24.1878 42.6954L24.191 42.7179C24.2891 42.6101 24.3382 42.5216 24.3553 42.4469C24.6667 42.5109 24.3201 43.0048 24.4353 43.2544L24.4449 43.2523C24.3414 43.0272 24.7905 42.4341 24.3606 42.3733C24.3435 42.1589 24.0353 42.0501 23.9649 41.8603C23.8795 41.6309 23.9862 41.3728 24.2699 41.2949C24.3115 41.5605 24.5814 41.7771 24.5398 42.1909L24.5633 42.1952C24.6347 41.4869 24.0161 41.3771 24.6742 40.7637C24.9665 41.0656 25.5425 41.2661 25.0177 41.8421L25.023 41.8795C25.1841 41.7035 25.2641 41.5595 25.2907 41.4368C25.7985 41.5413 25.2331 42.3477 25.4209 42.7552L25.4369 42.752C25.2673 42.384 26.0011 41.4165 25.2993 41.3173C25.2715 40.9664 24.7681 40.7893 24.6518 40.4789C24.5185 40.1205 24.6731 39.7184 25.0923 39.5744C25.5531 39.7013 26.1014 39.7344 26.6977 39.7141C27.1777 39.9499 27.2961 40.5205 27.0902 41.0144C26.9035 41.4603 26.2134 41.7173 26.1387 42.2229C25.7483 42.2826 25.6683 42.5546 25.6886 42.8917C25.0849 43.105 24.9067 43.8805 25.183 44.2826C24.4331 45.0293 25.1937 45.1946 25.1254 45.9253L25.1478 45.9307C25.2182 45.1627 24.6006 45.0421 25.2587 44.3787C25.551 44.7061 26.127 44.9237 25.6022 45.5488L25.6075 45.5893C25.7675 45.3984 25.8486 45.2416 25.8753 45.1093C26.383 45.2224 25.8177 46.097 26.0054 46.5387L26.0214 46.5344C25.8518 46.1355 26.5857 45.0869 25.8838 44.9792C25.8561 44.5994 25.3526 44.4075 25.2374 44.0725C25.0987 43.6704 25.2534 43.2 25.7046 43.0571C25.7654 43.5051 25.9371 44.0181 25.7985 44.2965L25.8198 44.3018C26.1142 43.7131 25.4475 42.5483 26.1355 42.3979C26.1569 42.5749 26.2497 42.7829 26.4438 43.0379L26.4555 42.9845C25.8187 42.1525 26.6081 41.8613 27.0305 41.4261C27.8401 42.3104 27.0049 42.4704 27.023 43.4933L27.0539 43.4859C27.0422 42.8203 27.5211 42.5066 27.5275 42.0555C28.1718 42.2187 28.3521 42.8715 28.1195 43.4283C27.9329 43.8741 27.2427 44.1312 27.1681 44.6368C26.2219 44.7808 27.0955 46.1771 26.8299 46.7093L26.8513 46.7147C27.1457 46.1259 26.479 44.9611 27.167 44.8107C27.1883 44.9877 27.2811 45.1957 27.4753 45.4507L27.487 45.3973C26.8502 44.5653 27.6395 44.2741 28.0619 43.8389C28.8715 44.7232 28.0363 44.8832 28.0545 45.9061L28.0854 45.8987C28.0683 44.9258 29.0977 44.7051 28.1729 43.7109C28.6049 43.1445 28.4022 42.0245 27.4998 41.8176L27.5009 41.8571C27.4539 41.6981 27.3451 41.5179 27.1435 41.3003C27.4689 40.8736 27.4337 40.1323 27.0113 39.7045C27.4667 39.6768 27.9435 39.6235 28.4267 39.5627C28.2379 39.8229 28.2166 40.1888 28.3691 40.4117C27.7718 41.0069 28.3777 41.1392 28.3233 41.7205L28.3414 41.7248C28.3979 41.1125 27.9051 41.0165 28.4299 40.4875C28.6635 40.7477 29.1222 40.9227 28.7041 41.4197L28.7083 41.4517C28.8363 41.2992 28.9003 41.1744 28.9217 41.0688C29.327 41.1595 28.8758 41.856 29.0262 42.208L29.039 42.2048C28.9035 41.8859 29.4881 41.0507 28.9291 40.9653C28.9067 40.6635 28.5057 40.5088 28.4139 40.2421C28.3275 39.9915 28.3841 39.7067 28.5857 39.5403C29.0817 39.4763 29.583 39.4048 30.0694 39.3451C30.6998 39.5509 31.0102 40.2453 30.7745 40.8085C30.5782 41.2789 29.8507 41.5488 29.7718 42.0811C28.7755 42.2325 29.695 43.7035 29.4155 44.2635L29.4379 44.2688C29.7483 43.648 29.0465 42.4224 29.7707 42.2624C29.7931 42.4491 29.8902 42.6677 30.095 42.9365L30.1067 42.88C29.4369 42.0032 30.2667 41.6971 30.7115 41.2384C31.5649 42.1696 30.6849 42.3381 30.7041 43.4165L30.7361 43.408C30.7318 43.1563 30.7969 42.9525 30.8843 42.7733C30.9867 42.8459 31.071 42.9291 31.1265 43.0122C31.3483 43.3493 31.0177 43.4859 30.8033 43.5925C30.3745 43.8059 30.0971 43.9488 30.4171 44.688L30.4523 44.6869C29.9595 43.5488 31.3899 43.8624 31.3121 43.1925C31.3025 43.1157 31.2715 43.0378 31.2214 42.9621C31.1542 42.8608 31.0539 42.7626 30.9345 42.6784C31.2043 42.1813 31.5809 41.8485 30.8886 41.104C31.2641 40.5728 31.2011 39.6672 30.5686 39.2875C31.1265 39.2299 31.6555 39.1968 32.1291 39.2181C32.2966 39.3461 32.3691 39.472 32.3457 39.6011C32.2742 39.9915 31.3238 39.8624 31.7227 40.7883L31.7526 40.7872C31.3419 39.8389 32.5345 40.0992 32.4683 39.5413C32.4545 39.4251 32.3819 39.3173 32.2923 39.2277C32.5665 39.248 32.8182 39.2896 33.0433 39.3579C33.8497 40.2133 33.0785 40.4608 32.495 40.7317C31.9115 41.0027 31.5723 41.3077 31.8497 42.3285L31.9051 42.3264C31.5617 41.0667 32.5569 40.9547 33.1681 40.6144C33.3195 40.7083 33.3665 40.8981 33.3099 41.0635C33.2545 41.2235 33.0134 41.3163 33.0006 41.4976C32.6859 41.5467 32.975 41.9904 32.9451 42.2027C32.7947 42.257 32.6561 42.3179 32.5441 42.4043C32.0139 42.8117 31.9083 43.265 31.9329 43.7685C31.4337 43.9274 31.2843 44.5589 31.5083 44.8843C30.9099 45.4795 31.5169 45.6117 31.4625 46.1931L31.4806 46.1973C31.5371 45.5851 31.0443 45.4891 31.5691 44.96C31.8027 45.2213 32.2614 45.3952 31.8433 45.8923L31.8475 45.9243C31.9755 45.7717 32.0395 45.6469 32.0609 45.5413C32.4662 45.632 32.015 46.3285 32.1643 46.6805L32.1771 46.6773C32.0417 46.3584 32.6262 45.5232 32.0673 45.4379C32.0459 45.1349 31.6438 44.9813 31.5521 44.7147C31.4401 44.3893 31.5691 44.0075 31.9425 43.8997C31.9691 44.208 32.0342 44.5333 32.0726 44.8779L32.1163 44.8491C32.0011 43.8091 31.7558 42.7317 33.1851 42.3093C33.3313 42.2667 33.4326 42.2325 33.5083 42.1984C33.215 42.5514 32.9398 42.9248 32.9675 43.4709L33.0337 43.4432C33.0113 42.9952 33.2513 42.672 33.5318 42.3595C33.8977 41.9531 34.3318 41.568 34.3403 40.9568C34.3414 40.8565 34.3371 40.7626 34.3286 40.672C34.9483 40.8725 35.1158 41.5328 34.8801 42.0971C34.6838 42.5675 33.9563 42.8373 33.8774 43.3696C33.7163 43.3941 33.6054 43.4539 33.5307 43.5381C33.2865 43.8155 33.4443 44.3659 33.5307 44.8512C33.5777 45.1157 33.6033 45.36 33.5307 45.5307C33.5275 45.5381 33.5243 45.5456 33.5201 45.5531L33.5307 45.5552L33.5425 45.5584C33.8529 44.9376 33.151 43.712 33.8753 43.552C33.8977 43.7387 33.9947 43.9573 34.1995 44.2261L34.2123 44.1696C33.5425 43.2928 34.3723 42.9867 34.8171 42.528C35.6705 43.4592 34.7905 43.6277 34.8097 44.7051L34.8427 44.6976C34.8321 44.0736 35.2289 43.744 35.3217 43.344C35.7035 43.4656 35.8337 43.8624 35.7163 44.2027C35.6193 44.4853 35.1926 44.6485 35.1691 44.9696C34.5761 45.0613 35.1958 45.9467 35.0529 46.2848L35.0667 46.288C35.2257 45.9147 34.7478 45.1754 35.1777 45.0795C35.2001 45.1915 35.2683 45.3237 35.4038 45.4848L35.4081 45.4507C34.9654 44.9227 35.4518 44.7381 35.6993 44.4618C36.255 45.0229 35.7323 45.1243 35.7931 45.7739L35.8123 45.7696C35.7761 45.3781 36.0214 45.1786 36.0438 44.9237V44.8501C36.0321 44.7211 35.9574 44.5739 35.7643 44.3808C35.9979 44.0416 35.8486 43.3888 35.3419 43.2064C35.3505 42.9845 35.2502 42.7307 34.9355 42.3925C35.3803 41.8112 35.1873 40.673 34.2945 40.416C34.1942 39.9168 33.9222 39.5627 33.5318 39.3141C31.5425 38.0491 26.447 39.552 24.8566 38.8139C24.751 36.5056 25.6939 33.3216 25.7302 30.4384C26.6465 29.9915 27.3238 29.6384 27.9233 29.2512C28.1003 29.2651 28.2763 29.2875 28.4513 29.3237L28.4555 29.3269C28.6859 29.4507 29.0038 29.8453 29.2171 30.3072C29.2694 30.6699 29.2214 31.4901 29.0422 31.7973C28.9611 31.936 28.9985 31.9968 29.0795 31.8581C29.2587 31.552 29.3323 31.0581 29.3707 30.6933C29.4987 31.0688 29.5659 31.4432 29.5243 31.7227C29.4987 31.8901 29.5521 31.8869 29.5777 31.7205C29.7003 30.9152 29.3494 29.9275 28.9494 29.4016C29.1158 29.4581 29.2833 29.5275 29.4518 29.6117C29.8625 29.8187 30.3222 30.1365 30.7969 30.4651C30.8961 30.5344 30.9963 30.6027 31.0977 30.672C31.3622 30.9259 31.6918 31.5061 31.759 31.9701C31.7665 32.0224 31.775 32.0789 31.7857 32.1323C31.839 32.3829 31.8945 32.3499 31.8667 32.1323C31.8614 32.0917 31.7878 31.4315 31.5702 30.9877C31.8763 31.1851 32.2923 31.4315 32.5953 31.5733C32.8427 31.7323 33.0411 32.1099 33.151 32.4907C33.2235 32.7424 33.2459 32.6432 33.215 32.4885C33.1446 32.1387 33.0785 31.9637 32.9067 31.6811C33.0795 31.7397 33.8614 31.9275 34.0278 31.9467C34.1494 31.9605 34.1622 31.8336 34.0417 31.8176C33.7419 31.776 33.0625 31.5659 32.4001 31.2075C31.8155 30.8917 31.2502 30.4736 30.9025 30.2336C30.8097 30.1696 30.7169 30.1056 30.6262 30.0427C30.7638 30 30.9099 29.9339 31.039 29.8752L31.8166 29.552C31.9947 29.6064 32.0897 29.9957 32.5067 30.2325C32.6155 30.2944 32.6379 30.2336 32.5323 30.1632C32.2518 29.9776 32.1035 29.6309 31.9617 29.4731L32.4331 29.2405C32.5547 29.184 32.5451 29.1008 32.4235 29.1573C31.9627 29.3728 31.4913 29.5307 31.0337 29.7376C30.7926 29.8464 30.4577 29.8752 30.3265 29.8187C30.3147 29.8133 30.303 29.8123 30.2902 29.8133C30.031 29.6427 29.7793 29.488 29.5403 29.3675C29.135 29.1637 28.7403 29.0379 28.3489 28.9611C28.9078 28.5547 29.4806 28.0427 30.2603 27.2597C30.6209 26.8981 30.9878 26.4789 31.3601 26.0309C31.3814 26.0235 31.4017 26.0107 31.4198 25.9947C31.6225 25.8091 32.2187 25.5691 32.687 25.5168C33.5755 25.4165 34.4673 25.2395 35.3665 25.1488C35.6033 25.1243 35.583 25.0048 35.3462 25.0283L34.4203 25.1061C34.5942 24.7744 34.6945 24.1803 35.0977 23.6949C35.2502 23.5115 35.1841 23.4475 35.0219 23.6224C34.4043 24.2912 34.4161 24.8992 34.1323 25.1211L32.6337 25.328C32.3809 25.3568 32.0982 25.3888 31.8401 25.4443C31.9702 25.2832 32.1014 25.1189 32.2337 24.9547C32.7275 24.3403 33.5222 23.3013 34.3937 22.3861C35.3825 21.3472 36.4673 20.4971 36.9697 20.1909C37.1617 20.0789 37.0817 19.9179 36.8769 20.0373ZM14.8587 40.5856C14.6827 40.737 14.6454 41.0144 14.7542 41.1723C14.3958 41.5296 14.7595 41.6085 14.7275 41.9584L14.7382 41.9605C14.7723 41.5936 14.4769 41.536 14.7905 41.2181C14.9302 41.3739 15.2065 41.4784 14.9547 41.7771L14.9579 41.7963C15.0347 41.7045 15.0731 41.6299 15.0859 41.5669C15.3131 41.6181 15.0923 41.9861 15.135 42.2069C14.9494 42.1408 14.7478 42.0843 14.5579 42.0043C14.4705 41.968 14.3862 41.9264 14.3073 41.8773C14.0993 41.6107 13.9318 41.328 13.9265 40.9664C13.9158 40.2869 14.1526 39.8539 14.5579 39.5883C14.5846 39.5701 14.6123 39.5541 14.6411 39.5381C14.6123 39.5797 14.5878 39.6213 14.5665 39.664L14.559 39.68C14.5057 39.7909 14.479 39.9061 14.4843 40.0203C14.4886 40.1269 14.5153 40.2176 14.559 40.2965C14.6251 40.4149 14.7318 40.5077 14.8587 40.5856ZM33.5222 39.6789C33.4987 39.6299 33.471 39.5829 33.4401 39.5381C33.4689 39.5541 33.4955 39.5712 33.5222 39.5883C33.9286 39.8539 34.1643 40.288 34.1537 40.9664C34.1483 41.328 33.9809 41.6096 33.7729 41.8773C33.6939 41.9264 33.6097 41.968 33.5222 42.0043C33.3323 42.0843 33.1307 42.1408 32.9451 42.2069C32.9889 41.9861 32.767 41.6181 32.9942 41.5669C33.007 41.6309 33.0454 41.7056 33.1222 41.7963L33.1243 41.7771C32.8737 41.4784 33.1489 41.3739 33.2886 41.2171C33.6033 41.5349 33.3078 41.5925 33.3419 41.9594L33.3526 41.9563C33.3206 41.6075 33.6843 41.5275 33.3249 41.1701C33.4337 41.0123 33.3963 40.7349 33.2203 40.5835C33.3483 40.5045 33.4539 40.4128 33.5211 40.2933C33.5649 40.2144 33.5915 40.1248 33.5958 40.0181C33.6022 39.8997 33.5734 39.7856 33.5222 39.6789Z" fill="#500800"/>
<path fill-rule="evenodd" clip-rule="evenodd" d="M16.8458 30.3488C16.4693 30.0352 15.9413 30.0746 15.6437 30.1941C14.8373 30.5184 14.8458 31.7333 14.2026 32.1813C14.7402 31.9648 15.2053 32.0736 15.7717 32.0096C16.4928 31.9285 17.056 31.2288 16.8725 30.5322C16.5237 30.5866 16.144 30.7498 15.8741 31.0282C15.5936 31.3173 15.2106 31.664 14.8085 31.7792C15.1882 31.6554 15.6 31.1786 15.7888 30.9546C15.8986 30.8234 16.2944 30.4608 16.8458 30.3488Z" fill="#76B82A"/>
<path fill-rule="evenodd" clip-rule="evenodd" d="M17.774 31.1541C17.3633 31.1456 17.038 31.4474 16.9057 31.681C16.5462 32.3157 17.1873 33.1072 17.0006 33.7376C17.2396 33.3152 17.6012 33.1424 17.9393 32.8053C18.3702 32.3754 18.3734 31.6224 17.8881 31.2618C17.6876 31.4794 17.5244 31.7856 17.4934 32.1088C17.4604 32.4448 17.391 32.8725 17.1873 33.1573C17.3718 32.8778 17.3921 32.3498 17.3985 32.1045C17.4017 31.9594 17.471 31.5157 17.774 31.1541Z" fill="#53821D"/>
<path fill-rule="evenodd" clip-rule="evenodd" d="M18.1088 29.6523C18.2421 29.264 18.0523 28.8619 17.8699 28.6646C17.3739 28.1302 16.4256 28.5003 15.8816 28.1312C16.2123 28.4875 16.2667 28.8832 16.4853 29.3088C16.7648 29.8496 17.4816 30.0811 17.9712 29.7291C17.824 29.472 17.5829 29.2235 17.2843 29.0955C16.9739 28.9622 16.5877 28.767 16.3776 28.4864C16.5877 28.7467 17.0848 28.927 17.3163 29.007C17.4528 29.0528 17.856 29.2544 18.1088 29.6523Z" fill="#3D6315"/>
<path fill-rule="evenodd" clip-rule="evenodd" d="M19.3727 30.8256C19.8165 30.9846 20.0426 31.4422 20.0885 31.7472C20.2133 32.575 19.2021 33.1616 19.1434 33.9147C19.0602 33.3632 18.7434 33.0304 18.5194 32.5291C18.2335 31.8912 18.5397 31.0816 19.2063 30.8939C19.3322 31.2096 19.3823 31.6043 19.2831 31.9648C19.1807 32.3392 19.0794 32.8256 19.1807 33.216C19.0975 32.8406 19.2917 32.2656 19.3855 32C19.4421 31.8432 19.5498 31.3376 19.3727 30.8256Z" fill="#76B82A"/>
<path fill-rule="evenodd" clip-rule="evenodd" d="M21.5722 30.351C21.9306 30.479 22.1119 30.848 22.1492 31.0944C22.2506 31.7622 21.4346 32.2347 21.3876 32.8416C21.3204 32.3968 21.0655 32.1291 20.8842 31.7248C20.6538 31.2107 20.9002 30.5579 21.4388 30.4064C21.5402 30.6614 21.5807 30.9792 21.5007 31.2694C21.4175 31.5712 21.3364 31.9637 21.4186 32.2784C21.3514 31.9755 21.5082 31.5126 21.5839 31.2982C21.6276 31.1723 21.7151 30.7648 21.5722 30.351Z" fill="#3D6315"/>
<path fill-rule="evenodd" clip-rule="evenodd" d="M22.1836 30.4021C22.4118 30.209 22.735 30.2304 22.9164 30.3018C23.4102 30.496 23.4113 31.2373 23.806 31.5082C23.4764 31.3792 23.1937 31.4474 22.847 31.4112C22.4065 31.3653 22.0588 30.9408 22.1676 30.5152C22.3809 30.5461 22.6134 30.6442 22.7798 30.8128C22.9526 30.9877 23.1873 31.1978 23.4337 31.2661C23.2012 31.1925 22.9473 30.9034 22.831 30.768C22.7638 30.6869 22.5206 30.4672 22.1836 30.4021Z" fill="#76B82A"/>
<path fill-rule="evenodd" clip-rule="evenodd" d="M18.4992 27.6309C18.2048 27.8805 17.7878 27.8528 17.5531 27.76C16.9152 27.5093 16.9142 26.5525 16.4043 26.2026C16.8288 26.369 17.1947 26.2816 17.6416 26.3274C18.2112 26.3861 18.6592 26.9344 18.5184 27.4848C18.2432 27.4442 17.9435 27.3184 17.728 27.1008C17.5051 26.8746 17.2011 26.6037 16.8832 26.5152C17.183 26.6101 17.5115 26.9834 17.6608 27.1584C17.7504 27.2629 18.064 27.5466 18.4992 27.6309Z" fill="#76B82A"/>
<path fill-rule="evenodd" clip-rule="evenodd" d="M12.8149 21.8251C12.9173 21.2512 12.5632 20.7285 12.2645 20.4917C11.4528 19.8496 10.2026 20.576 9.35889 20.1771C9.89969 20.6048 10.0629 21.1488 10.4629 21.6971C10.9728 22.3947 12.0288 22.5632 12.64 21.9616C12.3776 21.6331 11.985 21.3376 11.5381 21.2224C11.0741 21.1029 10.4885 20.9131 10.1322 20.5653C10.4842 20.8843 11.2202 21.0293 11.5626 21.0901C11.7642 21.1275 12.3733 21.3216 12.8149 21.8251Z" fill="#76B82A"/>
<path fill-rule="evenodd" clip-rule="evenodd" d="M14.13 21.3323C14.4969 21.0592 14.5769 20.5707 14.5332 20.2752C14.4159 19.472 13.3108 19.2139 13.0452 18.5323C13.1241 19.0667 12.9236 19.4656 12.8575 19.9936C12.7732 20.6656 13.2852 21.3302 13.9572 21.3163C13.9849 20.9878 13.9199 20.608 13.7257 20.3019C13.5252 19.984 13.2937 19.5606 13.2777 19.1702C13.3065 19.5414 13.6489 20.0203 13.8111 20.24C13.9071 20.3691 14.1492 20.8075 14.13 21.3323Z" fill="#3D6315"/>
<path fill-rule="evenodd" clip-rule="evenodd" d="M14.7626 25.087C14.466 24.8395 14.05 24.8694 13.8154 24.9632C13.1796 25.2182 13.1839 26.175 12.6772 26.528C13.1007 26.3584 13.4676 26.4438 13.9135 26.3947C14.482 26.3318 14.9268 25.7803 14.7828 25.232C14.5076 25.2747 14.2079 25.4027 13.9956 25.6214C13.7738 25.8486 13.4719 26.1216 13.1551 26.2123C13.4548 26.1152 13.7802 25.7398 13.9284 25.5638C14.0159 25.4603 14.3274 25.1744 14.7626 25.087Z" fill="#5D9021"/>
<path fill-rule="evenodd" clip-rule="evenodd" d="M14.8064 23.7611C14.7605 23.3781 14.4362 23.1136 14.2026 23.0219C13.5648 22.7702 12.912 23.4709 12.3008 23.3792C12.7253 23.5467 12.9333 23.8603 13.2917 24.1312C13.7482 24.4757 14.4501 24.3797 14.7221 23.8816C14.4928 23.7237 14.1877 23.6117 13.8816 23.6245C13.5648 23.6384 13.1573 23.6299 12.865 23.4774C13.1488 23.6128 13.6437 23.5627 13.873 23.536C14.0074 23.52 14.4298 23.5264 14.8064 23.7611Z" fill="#76B82A"/>
<path fill-rule="evenodd" clip-rule="evenodd" d="M15.8955 21.9115C15.3813 21.7963 15.0677 21.3184 14.976 20.9867C14.7243 20.0853 15.7675 19.296 15.7291 18.4523C15.8965 19.0528 16.2933 19.3792 16.6112 19.904C17.0155 20.5728 16.7861 21.5125 16.0715 21.8123C15.8891 21.4784 15.7792 21.0475 15.84 20.6347C15.9029 20.2059 15.9488 19.6512 15.7824 19.232C15.9264 19.6373 15.7888 20.3019 15.7205 20.6091C15.6811 20.7915 15.6299 21.3675 15.8955 21.9115Z" fill="#AFCA0B"/>
<path fill-rule="evenodd" clip-rule="evenodd" d="M12.8533 15.7291C12.8299 15.2566 12.4555 14.9067 12.176 14.7744C11.4176 14.4139 10.5611 15.2149 9.8208 15.0517C10.3264 15.2917 10.5536 15.6928 10.9696 16.0533C11.4987 16.5131 12.3648 16.4544 12.7392 15.8677C12.4725 15.6555 12.1077 15.4923 11.7333 15.4837C11.344 15.4741 10.848 15.4293 10.5024 15.2192C10.8384 15.408 11.4464 15.3888 11.7291 15.3749C11.8965 15.3675 12.4128 15.4102 12.8533 15.7291Z" fill="#76B82A"/>
<path fill-rule="evenodd" clip-rule="evenodd" d="M18.9013 19.9851C18.9952 19.6661 18.8267 19.3472 18.672 19.1947C18.2517 18.7797 17.4965 19.1147 17.0432 18.8352C17.3237 19.1115 17.3824 19.4304 17.5755 19.7664C17.8208 20.1941 18.4107 20.3552 18.7947 20.0523C18.6667 19.8496 18.4619 19.6576 18.2155 19.5648C17.9595 19.4688 17.6395 19.3237 17.4592 19.104C17.6384 19.3067 18.048 19.4347 18.2379 19.4912C18.3488 19.5232 18.6827 19.6715 18.9013 19.9851Z" fill="#3D6315"/>
<path fill-rule="evenodd" clip-rule="evenodd" d="M18.9504 22.8682C18.6645 22.7274 18.5493 22.4021 18.5419 22.193C18.5227 21.6277 19.248 21.312 19.3451 20.8117C19.3579 21.1882 19.5445 21.4368 19.6565 21.7909C19.7984 22.2421 19.5307 22.7616 19.0677 22.8352C19.008 22.6133 19.0048 22.3445 19.0997 22.1098C19.1979 21.8666 19.3035 21.5477 19.2661 21.2778C19.2928 21.536 19.1179 21.9072 19.0336 22.0778C18.9845 22.1792 18.8725 22.5098 18.9504 22.8682Z" fill="#AFCA0B"/>
<path fill-rule="evenodd" clip-rule="evenodd" d="M18.607 24.0992C18.3115 24.2176 17.9915 24.0875 17.8315 23.9541C17.3974 23.5915 17.6459 22.8405 17.3376 22.4341C17.6267 22.6763 17.9371 22.7019 18.2752 22.8555C18.7062 23.0507 18.9142 23.5968 18.6603 23.9915C18.4555 23.888 18.2528 23.7109 18.1419 23.4837C18.0267 23.248 17.8592 22.9568 17.6331 22.8043C17.8432 22.9568 18.0032 23.3344 18.0747 23.5115C18.1152 23.6149 18.288 23.92 18.607 24.0992Z" fill="#76B82A"/>
<path fill-rule="evenodd" clip-rule="evenodd" d="M19.6596 24.4938C19.5786 24.1706 19.7599 23.8581 19.922 23.712C20.3604 23.3141 21.1018 23.68 21.5679 23.4186C21.2756 23.6832 21.2042 24 20.9972 24.3285C20.7338 24.7466 20.1375 24.8832 19.7652 24.5642C19.9018 24.3669 20.114 24.1824 20.3647 24.1002C20.625 24.0138 20.9514 23.8826 21.1412 23.6704C20.9535 23.8666 20.5386 23.9776 20.3455 24.0256C20.2324 24.0544 19.8922 24.1888 19.6596 24.4938Z" fill="#76B82A"/>
<path fill-rule="evenodd" clip-rule="evenodd" d="M19.8794 19.8613C19.5988 19.7397 19.473 19.4336 19.457 19.2352C19.4122 18.6944 20.0916 18.3594 20.161 17.8752C20.1908 18.2357 20.3818 18.464 20.5044 18.7978C20.6612 19.2224 20.4287 19.7322 19.9892 19.825C19.922 19.6149 19.906 19.3578 19.986 19.1296C20.0682 18.8917 20.1546 18.5813 20.1066 18.3253C20.1439 18.5717 19.9935 18.9344 19.922 19.1029C19.8783 19.2 19.7866 19.5221 19.8794 19.8613Z" fill="#76B82A"/>
<path fill-rule="evenodd" clip-rule="evenodd" d="M20.8969 20.6933C20.6676 20.5461 20.6004 20.2592 20.6143 20.0821C20.6516 19.6 21.2959 19.4016 21.426 18.9856C21.4015 19.3067 21.5369 19.5349 21.5977 19.8453C21.6756 20.2411 21.3993 20.6571 20.9993 20.6763C20.9695 20.4821 20.9929 20.2539 21.0953 20.064C21.202 19.8667 21.3215 19.6064 21.3151 19.3739C21.3129 19.5957 21.1295 19.8944 21.042 20.0309C20.9908 20.112 20.8639 20.3829 20.8969 20.6933Z" fill="#5D9021"/>
<path fill-rule="evenodd" clip-rule="evenodd" d="M22.7626 21.8859C22.4917 21.8614 22.2997 21.6384 22.2293 21.4742C22.0394 21.0294 22.5205 20.5558 22.4447 20.127C22.5706 20.4235 22.7957 20.5632 22.9941 20.8107C23.2458 21.1264 23.1914 21.6224 22.8458 21.824C22.7295 21.6651 22.6453 21.4528 22.6485 21.2374C22.6517 21.0134 22.6378 20.7264 22.5247 20.5238C22.625 20.7211 22.6005 21.071 22.5855 21.2331C22.577 21.327 22.5898 21.6246 22.7626 21.8859Z" fill="#76B82A"/>
<path fill-rule="evenodd" clip-rule="evenodd" d="M22.3286 25.9509C21.9648 25.9179 21.7067 25.6181 21.6139 25.3995C21.36 24.8032 22.0043 24.1675 21.9019 23.5925C22.0715 23.9893 22.3734 24.1781 22.6379 24.5099C22.975 24.9333 22.9035 25.5989 22.4395 25.8688C22.2838 25.6565 22.1707 25.3707 22.175 25.0816C22.1792 24.7819 22.1611 24.3968 22.0096 24.1237C22.1451 24.3893 22.111 24.8576 22.0918 25.0741C22.079 25.2021 22.096 25.6011 22.3286 25.9509Z" fill="#5D9021"/>
<path fill-rule="evenodd" clip-rule="evenodd" d="M13.1093 17.0827C12.8021 16.8864 12.4149 16.9654 12.2058 17.0816C11.6394 17.3974 11.761 18.2944 11.3269 18.687C11.7034 18.4768 12.0576 18.5131 12.4704 18.4128C12.9962 18.2848 13.3461 17.7142 13.1456 17.2171C12.8928 17.2896 12.6272 17.4464 12.4544 17.6779C12.2741 17.9179 12.0234 18.2102 11.7376 18.3339C12.0064 18.207 12.2666 17.8155 12.384 17.632C12.4544 17.5232 12.7125 17.2182 13.1093 17.0827Z" fill="#5D9021"/>
<path fill-rule="evenodd" clip-rule="evenodd" d="M14.5942 17.5584C14.3553 17.5253 14.1441 17.6789 14.0513 17.8069C13.7985 18.1525 14.1185 18.6592 13.966 19.0144C14.1345 18.784 14.3574 18.7083 14.5782 18.5333C14.8588 18.3115 14.9121 17.872 14.654 17.6277C14.5217 17.7419 14.4054 17.9083 14.3649 18.0949C14.3233 18.2891 14.2529 18.5344 14.1142 18.6869C14.2412 18.5365 14.2892 18.2293 14.3094 18.0864C14.3212 18.0043 14.3926 17.7493 14.5942 17.5584Z" fill="#76B82A"/>
<path fill-rule="evenodd" clip-rule="evenodd" d="M13.7013 15.8102C14.0309 15.6971 14.2005 15.3611 14.2368 15.136C14.336 14.5259 13.5947 14.0843 13.5573 13.5286C13.4912 13.935 13.2544 14.1782 13.0848 14.5462C12.8683 15.0144 13.088 15.615 13.5787 15.759C13.6736 15.5264 13.7141 15.2363 13.6437 14.9696C13.5712 14.6923 13.5008 14.3328 13.5787 14.0459C13.5136 14.3222 13.6523 14.7478 13.7195 14.9451C13.7611 15.0592 13.8357 15.4336 13.7013 15.8102Z" fill="#53821D"/>
<path fill-rule="evenodd" clip-rule="evenodd" d="M15.7706 14.3744C15.9487 14.1898 15.9477 13.9125 15.8965 13.7536C15.7578 13.3205 15.1242 13.2789 14.9141 12.9258C15.0069 13.2138 14.9322 13.4528 14.9439 13.7504C14.9589 14.1301 15.3023 14.4501 15.6725 14.3808C15.6575 14.1962 15.5871 13.9925 15.4517 13.841C15.3119 13.6832 15.1445 13.4709 15.1007 13.2565C15.1509 13.4592 15.3834 13.6928 15.4933 13.7994C15.5583 13.8624 15.7333 14.0821 15.7706 14.3744Z" fill="#76B82A"/>
<path fill-rule="evenodd" clip-rule="evenodd" d="M15.0442 15.4037C14.928 15.2544 14.7242 15.2256 14.6026 15.2459C14.2709 15.3024 14.1738 15.7621 13.8933 15.8784C14.1141 15.8411 14.2816 15.92 14.5002 15.9435C14.7797 15.9723 15.0506 15.7547 15.0389 15.4763C14.9024 15.4677 14.7456 15.4987 14.6208 15.5808C14.4906 15.6672 14.3178 15.7664 14.1557 15.7771C14.3093 15.7621 14.5045 15.616 14.5941 15.5467C14.6474 15.5051 14.8266 15.4005 15.0442 15.4037Z" fill="#5D9021"/>
<path fill-rule="evenodd" clip-rule="evenodd" d="M16.4673 15.0496C16.7489 15.0464 16.9665 14.831 17.0519 14.6678C17.2844 14.224 16.8257 13.695 16.9399 13.2576C16.7852 13.5531 16.5409 13.68 16.3169 13.919C16.0311 14.224 16.046 14.7414 16.3863 14.9782C16.5185 14.8235 16.6241 14.6102 16.638 14.3883C16.6529 14.1568 16.6913 13.8614 16.8247 13.6608C16.7041 13.8571 16.702 14.2198 16.7031 14.3883C16.7041 14.4886 16.6668 14.7947 16.4673 15.0496Z" fill="#AFCA0B"/>
<path fill-rule="evenodd" clip-rule="evenodd" d="M17.3503 17.1595C17.2458 16.8971 16.9674 16.7723 16.7839 16.752C16.2858 16.6955 15.9583 17.3131 15.5093 17.3643C15.841 17.4016 16.0469 17.584 16.3509 17.7067C16.7381 17.8635 17.2159 17.6629 17.313 17.2597C17.121 17.1915 16.8842 17.1701 16.6709 17.2373C16.4501 17.3067 16.161 17.3781 15.9253 17.3259C16.1514 17.3675 16.4906 17.2384 16.6474 17.1765C16.7402 17.1413 17.041 17.0656 17.3503 17.1595Z" fill="#76B82A"/>
<path fill-rule="evenodd" clip-rule="evenodd" d="M15.4016 12.8256C15.6 12.5696 15.5616 12.2208 15.4752 12.0277C15.2416 11.5019 14.4384 11.536 14.127 11.1221C14.2827 11.472 14.2219 11.7824 14.2774 12.1547C14.3478 12.6293 14.8235 12.9856 15.28 12.848C15.2363 12.6187 15.119 12.3712 14.9291 12.1995C14.7318 12.0213 14.4928 11.776 14.4075 11.5125C14.4982 11.7611 14.8235 12.0224 14.976 12.1408C15.0656 12.2112 15.3152 12.464 15.4016 12.8256Z" fill="#5D9021"/>
<path fill-rule="evenodd" clip-rule="evenodd" d="M15.7835 11.7557C15.9531 11.6363 15.9947 11.4155 15.9776 11.2811C15.9328 10.9152 15.4347 10.7872 15.3206 10.4747C15.3504 10.7179 15.2555 10.8971 15.2203 11.136C15.1744 11.44 15.3995 11.7472 15.7046 11.7472C15.7206 11.5989 15.695 11.4251 15.6107 11.2843C15.5232 11.1381 15.423 10.944 15.4198 10.7659C15.4294 10.9344 15.5798 11.1552 15.6502 11.2565C15.6918 11.3163 15.7974 11.5168 15.7835 11.7557Z" fill="#3D6315"/>
<path fill-rule="evenodd" clip-rule="evenodd" d="M18.8352 16.0566C19.0336 15.8006 18.9952 15.4518 18.9088 15.2587C18.6752 14.7328 17.872 14.767 17.5605 14.3531C17.7163 14.703 17.6555 15.0134 17.7109 15.3867C17.7813 15.8614 18.2571 16.2176 18.7136 16.08C18.6699 15.8507 18.5525 15.6032 18.3627 15.4315C18.1653 15.2534 17.9264 15.008 17.8411 14.7446C17.9317 14.9931 18.2571 15.2544 18.4096 15.3728C18.4981 15.4411 18.7477 15.6939 18.8352 16.0566Z" fill="#53821D"/>
<path fill-rule="evenodd" clip-rule="evenodd" d="M14.319 9.20214C14.4737 8.76694 14.2657 8.31254 14.063 8.08961C13.5126 7.48267 12.4417 7.88801 11.8347 7.46667C12.2017 7.87094 12.2582 8.31681 12.4993 8.79681C12.8065 9.40801 13.6096 9.67681 14.1643 9.28641C14.0022 8.99627 13.7345 8.71361 13.3995 8.56641C13.0529 8.41281 12.6209 8.18881 12.3873 7.87094C12.6209 8.16641 13.1766 8.37441 13.4358 8.46721C13.5894 8.52054 14.0395 8.75201 14.319 9.20214Z" fill="#53821D"/>
<path fill-rule="evenodd" clip-rule="evenodd" d="M15.8038 9.04534C16.1696 8.98988 16.4118 8.67201 16.4928 8.44374C16.7136 7.82614 16.0235 7.22241 16.0918 6.63574C15.9446 7.04748 15.6512 7.25548 15.4038 7.60748C15.088 8.05548 15.2022 8.72321 15.6875 8.96854C15.8315 8.74454 15.9296 8.44801 15.9072 8.15681C15.8848 7.85388 15.8795 7.46348 16.016 7.17868C15.8955 7.45494 15.9584 7.92641 15.9915 8.14401C16.0096 8.27308 16.0171 8.67841 15.8038 9.04534Z" fill="#76B82A"/>
<path fill-rule="evenodd" clip-rule="evenodd" d="M17.4347 10.1963C17.7067 10.0523 17.8091 9.73653 17.8112 9.53493C17.8155 8.9888 17.1083 8.70507 17.0005 8.224C16.9984 8.58773 16.8245 8.832 16.7264 9.17547C16.6016 9.61387 16.8736 10.1077 17.3216 10.1664C17.3728 9.95093 17.3685 9.69173 17.2715 9.4688C17.1701 9.23733 17.0603 8.93227 17.0891 8.67093C17.0699 8.92053 17.2491 9.2736 17.3344 9.4368C17.3845 9.5328 17.5008 9.84853 17.4347 10.1963Z" fill="#53821D"/>
<path fill-rule="evenodd" clip-rule="evenodd" d="M14.5322 9.70882C14.2826 9.52856 13.953 9.57762 13.7727 9.66509C13.282 9.90402 13.3407 10.6646 12.9578 10.9739C13.2842 10.815 13.5807 10.8619 13.9327 10.7968C14.3807 10.7147 14.7028 10.2507 14.5567 9.82296C14.3402 9.87202 14.1098 9.99149 13.954 10.1771C13.7908 10.3702 13.5668 10.6048 13.3204 10.6944C13.553 10.6006 13.7898 10.2838 13.8975 10.1344C13.9604 10.048 14.1919 9.80269 14.5322 9.70882Z" fill="#76B82A"/>
<path fill-rule="evenodd" clip-rule="evenodd" d="M20.0106 11.9872C19.8613 11.7184 19.9466 11.3973 20.0554 11.2277C20.3498 10.768 21.0975 10.9141 21.4495 10.5707C21.2533 10.8768 21.2661 11.1765 21.1615 11.5179C21.0271 11.9531 20.5301 12.2197 20.1226 12.0245C20.1962 11.8155 20.3413 11.6 20.545 11.4667C20.7562 11.3269 21.0143 11.1317 21.1327 10.8971C21.0122 11.1168 20.6709 11.3152 20.5098 11.4059C20.4138 11.4592 20.1439 11.6608 20.0106 11.9872Z" fill="#3D6315"/>
<path fill-rule="evenodd" clip-rule="evenodd" d="M20.8118 12.3083C20.8022 12.1344 20.9259 11.9915 21.023 11.9328C21.2875 11.7718 21.6321 12.0331 21.8966 11.9446C21.7206 12.0523 21.6523 12.208 21.5137 12.3563C21.3366 12.5451 21.0177 12.5568 20.8577 12.3563C20.9473 12.2678 21.0742 12.1942 21.2118 12.1771C21.3537 12.159 21.5339 12.1227 21.6534 12.0331C21.5371 12.1152 21.3131 12.1312 21.2097 12.1376C21.1489 12.1387 20.9611 12.1739 20.8118 12.3083Z" fill="#5D9021"/>
<path fill-rule="evenodd" clip-rule="evenodd" d="M18.3541 12.3947C18.0576 12.2976 17.8997 11.9989 17.8635 11.7973C17.7653 11.2512 18.4245 10.8448 18.4491 10.3445C18.5141 10.7083 18.7307 10.9227 18.8875 11.2501C19.088 11.6672 18.9003 12.2091 18.4619 12.3456C18.3733 12.1387 18.3328 11.8784 18.3915 11.6384C18.4523 11.3888 18.5109 11.0645 18.4363 10.8085C18.4981 11.056 18.3797 11.44 18.3221 11.6171C18.2901 11.7216 18.2283 12.0587 18.3541 12.3947Z" fill="#76B82A"/>
<path fill-rule="evenodd" clip-rule="evenodd" d="M20.4864 14.8213C20.2763 14.5899 20.288 14.2517 20.3563 14.0597C20.5419 13.5371 21.3163 13.5104 21.5851 13.088C21.4614 13.4357 21.5424 13.7301 21.5168 14.0928C21.4848 14.5547 21.0528 14.9323 20.6048 14.8331C20.6304 14.6091 20.7243 14.3627 20.8939 14.1835C21.071 13.9968 21.2822 13.744 21.344 13.4848C21.2758 13.7301 20.9824 14.0053 20.8448 14.1312C20.7638 14.2048 20.543 14.4661 20.4864 14.8213Z" fill="#76B82A"/>
<path fill-rule="evenodd" clip-rule="evenodd" d="M20.7754 4.32639C20.3583 4.04053 20.2495 3.50293 20.2858 3.17439C20.3829 2.28159 21.5935 1.94986 21.8602 1.18506C21.7951 1.78026 22.033 2.21226 22.1279 2.79359C22.2495 3.53386 21.7098 4.29013 20.9663 4.30186C20.9226 3.93919 20.9791 3.51679 21.1807 3.17013C21.3898 2.81066 21.6277 2.33279 21.6298 1.89973C21.6138 2.31146 21.2543 2.85546 21.0837 3.10506C20.9834 3.25226 20.7327 3.74719 20.7754 4.32639Z" fill="#76B82A"/>
<path fill-rule="evenodd" clip-rule="evenodd" d="M19.8175 5.21921C19.8709 4.84054 19.6255 4.50668 19.4239 4.35948C18.8767 3.95841 18.0757 4.46508 17.5125 4.22401C17.8773 4.49068 17.9978 4.84374 18.273 5.19254C18.6239 5.63734 19.3205 5.72161 19.7055 5.31308C19.5253 5.10401 19.2607 4.92054 18.9653 4.85654C18.6581 4.79041 18.2709 4.67948 18.0287 4.46081C18.2666 4.66134 18.753 4.73814 18.9791 4.77014C19.1125 4.78828 19.5157 4.90028 19.8175 5.21921Z" fill="#5D9021"/>
<path fill-rule="evenodd" clip-rule="evenodd" d="M21.2383 5.27464C21.1957 4.97064 21.3919 4.70184 21.5541 4.58344C21.9946 4.26131 22.6389 4.66877 23.0911 4.47464C22.7978 4.68904 22.7007 4.97277 22.4799 5.25331C22.1973 5.61064 21.6373 5.67891 21.3279 5.35037C21.473 5.18291 21.6853 5.03464 21.9231 4.98237C22.1706 4.92904 22.4821 4.83944 22.6773 4.66344C22.4853 4.82451 22.0949 4.88637 21.9135 4.91197C21.8058 4.92797 21.4815 5.01757 21.2383 5.27464Z" fill="#5D9021"/>
<path fill-rule="evenodd" clip-rule="evenodd" d="M19.9445 6.66455C19.8698 6.36588 19.5872 6.19095 19.392 6.14188C18.8629 6.00855 18.4181 6.62721 17.9253 6.61655C18.2773 6.70508 18.4736 6.93228 18.784 7.10935C19.1797 7.33548 19.7248 7.18828 19.889 6.76695C19.6917 6.66561 19.4389 6.60801 19.2 6.64961C18.9504 6.69228 18.6282 6.72748 18.3818 6.63681C18.6197 6.71468 19.0058 6.62508 19.184 6.58135C19.2885 6.55468 19.6234 6.51735 19.9445 6.66455Z" fill="#53821D"/>
<path fill-rule="evenodd" clip-rule="evenodd" d="M19.8058 9.57118C19.6768 9.37811 19.4314 9.32584 19.281 9.34078C18.8714 9.38024 18.7136 9.93278 18.3616 10.0501C18.6346 10.0234 18.8309 10.1354 19.0965 10.1824C19.4346 10.2421 19.7834 9.99997 19.793 9.65971C19.6277 9.63731 19.4336 9.66077 19.2736 9.75144C19.1072 9.84531 18.8874 9.95197 18.6901 9.94984C18.8789 9.94451 19.1296 9.78344 19.2448 9.70664C19.313 9.65971 19.5413 9.54878 19.8058 9.57118Z" fill="#76B82A"/>
<path fill-rule="evenodd" clip-rule="evenodd" d="M20.0043 8.89172C20.0267 8.56426 19.7963 8.29332 19.6149 8.18026C19.1221 7.87092 18.4672 8.35412 17.9712 8.18239C18.2997 8.38826 18.4245 8.68266 18.6816 8.96426C19.0091 9.32266 19.6107 9.35252 19.9147 8.97919C19.7483 8.81172 19.5104 8.66986 19.2533 8.63359C18.9867 8.59519 18.6475 8.52479 18.4267 8.35199C18.6432 8.50879 19.0635 8.54399 19.2587 8.55786C19.3749 8.56639 19.7269 8.63679 20.0043 8.89172Z" fill="#AFCA0B"/>
<path fill-rule="evenodd" clip-rule="evenodd" d="M20.9964 9.09758C21.1692 8.94291 21.1862 8.69224 21.15 8.54504C21.0529 8.14504 20.4833 8.06718 20.3169 7.73651C20.382 8.00318 20.2998 8.21331 20.2913 8.48211C20.2806 8.82558 20.5697 9.13598 20.9089 9.09758C20.9068 8.93011 20.8566 8.74131 20.7446 8.59624C20.6284 8.44584 20.4918 8.24318 20.4652 8.04691C20.4972 8.23358 20.6924 8.45864 20.7852 8.56104C20.8374 8.62184 20.9814 8.83198 20.9964 9.09758Z" fill="#76B82A"/>
<path fill-rule="evenodd" clip-rule="evenodd" d="M23.361 6.61117C23.6885 6.7285 24.032 6.57277 24.2005 6.42024C24.6592 6.00637 24.3573 5.1989 24.6762 4.74237C24.3701 5.01757 24.0341 5.05917 23.6714 5.2405C23.2096 5.4709 23.0048 6.0757 23.2981 6.4949C23.5178 6.3733 23.7312 6.1717 23.8432 5.91997C23.9594 5.65864 24.1301 5.3333 24.3701 5.15837C24.1472 5.3333 23.9882 5.7525 23.9178 5.9477C23.8762 6.0629 23.7013 6.40104 23.361 6.61117Z" fill="#AFCA0B"/>
<path fill-rule="evenodd" clip-rule="evenodd" d="M22.2113 7.71735C22.351 7.62135 22.3873 7.44108 22.3745 7.33122C22.3414 7.03148 21.935 6.92162 21.8454 6.66455C21.8678 6.86402 21.7878 7.00908 21.7569 7.20428C21.7164 7.45282 21.8977 7.70562 22.1473 7.70988C22.1622 7.58828 22.143 7.44642 22.0748 7.33015C22.0044 7.20962 21.9244 7.04962 21.9233 6.90455C21.9286 7.04322 22.0502 7.22455 22.1068 7.30882C22.1409 7.35682 22.2252 7.52322 22.2113 7.71735Z" fill="#76B82A"/>
<path fill-rule="evenodd" clip-rule="evenodd" d="M22.3244 6.35091C22.5238 6.38504 22.7041 6.26131 22.7862 6.15784C23.007 5.87517 22.7532 5.44317 22.8897 5.14984C22.7425 5.33864 22.5537 5.39624 22.3649 5.53597C22.1238 5.71411 22.0673 6.08104 22.2774 6.29117C22.3905 6.19944 22.4929 6.06291 22.5313 5.90717C22.5718 5.74611 22.6369 5.54237 22.7564 5.41864C22.6465 5.54131 22.5974 5.79731 22.5772 5.91571C22.5644 5.98504 22.4982 6.19731 22.3244 6.35091Z" fill="#76B82A"/>
<path fill-rule="evenodd" clip-rule="evenodd" d="M19.1157 16.9675C19.3664 17.1211 19.4464 17.4304 19.4346 17.6224C19.4048 18.1451 18.7104 18.3733 18.5792 18.8256C18.5994 18.4779 18.448 18.2336 18.3754 17.8987C18.2826 17.472 18.5738 17.0165 19.0058 16.9867C19.0421 17.1957 19.0218 17.4432 18.9152 17.6512C18.8042 17.8667 18.6805 18.1515 18.6922 18.4032C18.689 18.1632 18.8821 17.8368 18.9738 17.6864C19.0272 17.5979 19.1573 17.3035 19.1157 16.9675Z" fill="#5D9021"/>
<path fill-rule="evenodd" clip-rule="evenodd" d="M19.7355 16.4587C19.9435 16.3904 20.0544 16.1814 20.0789 16.0406C20.1483 15.6587 19.6864 15.3728 19.6693 15.0229C19.6235 15.2779 19.472 15.4283 19.3621 15.6576C19.2213 15.9499 19.3525 16.3296 19.6597 16.4245C19.7216 16.2795 19.7504 16.0971 19.7088 15.9285C19.6661 15.7536 19.6256 15.5264 19.6779 15.3472C19.6341 15.52 19.7173 15.7899 19.7568 15.9136C19.7803 15.9872 19.824 16.224 19.7355 16.4587Z" fill="#76B82A"/>
<path fill-rule="evenodd" clip-rule="evenodd" d="M26.5898 6.95678C26.5642 6.48744 26.898 6.10238 27.1604 5.94238C27.873 5.50718 28.8042 6.21011 29.5178 5.97224C29.0431 6.26238 28.8596 6.68264 28.4852 7.08264C28.0095 7.59144 27.1466 7.62451 26.7156 7.08264C26.9578 6.84478 27.3012 6.64638 27.6703 6.59838C28.0532 6.54824 28.5407 6.45224 28.8607 6.20798C28.5482 6.42984 27.9444 6.47358 27.6639 6.48958C27.4986 6.50024 26.9919 6.59624 26.5898 6.95678Z" fill="#3D6315"/>
<path fill-rule="evenodd" clip-rule="evenodd" d="M25.055 7.29495C24.8982 7.07842 24.9398 6.79148 25.0166 6.63362C25.2246 6.20588 25.886 6.25708 26.1558 5.92322C26.0172 6.20802 26.0588 6.46615 26.0022 6.77228C25.9308 7.16268 25.5276 7.44322 25.1542 7.31628C25.1969 7.12748 25.3004 6.92695 25.4625 6.79042C25.631 6.64855 25.8348 6.45335 25.9126 6.23788C25.8305 6.44055 25.5553 6.64642 25.4262 6.74135C25.3505 6.79575 25.1372 6.99842 25.055 7.29495Z" fill="#76B82A"/>
<path fill-rule="evenodd" clip-rule="evenodd" d="M23.8988 8.16105C24.014 8.00211 23.983 7.79091 23.9276 7.67571C23.775 7.36211 23.2886 7.39945 23.0913 7.15411C23.1926 7.36318 23.1628 7.55305 23.2044 7.77811C23.2566 8.06505 23.5532 8.27091 23.8273 8.17811C23.7964 8.03945 23.7196 7.89225 23.6012 7.79198C23.4774 7.68745 23.3281 7.54451 23.2705 7.38665C23.3302 7.53491 23.5329 7.68745 23.6278 7.75571C23.6822 7.79518 23.839 7.94345 23.8988 8.16105Z" fill="#5D9021"/>
<path fill-rule="evenodd" clip-rule="evenodd" d="M26.6058 8.01704C26.5802 8.22931 26.721 8.41384 26.8352 8.49491C27.1466 8.71357 27.5904 8.42131 27.9082 8.55037C27.7013 8.40424 27.6298 8.20797 27.472 8.01491C27.2704 7.76957 26.88 7.72904 26.6677 7.96264C26.7701 8.07784 26.9205 8.17811 27.0869 8.21117C27.2597 8.24531 27.4784 8.30291 27.616 8.42344C27.4805 8.31357 27.2074 8.27517 27.0805 8.26024C27.0048 8.25171 26.7776 8.19304 26.6058 8.01704Z" fill="#76B82A"/>
<path fill-rule="evenodd" clip-rule="evenodd" d="M29.2394 8.81921C29.105 8.51841 29.2277 8.18348 29.3599 8.01388C29.7173 7.55201 30.5013 7.77921 30.9087 7.44641C30.6709 7.75468 30.6549 8.07468 30.5109 8.42881C30.3263 8.88001 29.7706 9.11681 29.3546 8.87041C29.4538 8.65495 29.6287 8.43948 29.8581 8.31574C30.097 8.18774 30.3903 8.00321 30.5386 7.76428C30.3893 7.98721 30.0053 8.16641 29.8261 8.24641C29.7194 8.29441 29.4122 8.48321 29.2394 8.81921Z" fill="#5D9021"/>
<path fill-rule="evenodd" clip-rule="evenodd" d="M28.1802 8.7072C28.0244 8.6336 27.9594 8.45866 27.954 8.3456C27.9391 8.04053 28.3284 7.86453 28.3775 7.59253C28.3871 7.79626 28.4906 7.92853 28.5535 8.11946C28.6335 8.3616 28.4927 8.64533 28.2431 8.68906C28.209 8.5696 28.2058 8.42453 28.2548 8.29653C28.306 8.16426 28.3615 7.99146 28.338 7.84533C28.354 7.98506 28.2634 8.18666 28.2186 8.27946C28.193 8.33493 28.1343 8.51413 28.1802 8.7072Z" fill="#76B82A"/>
<path fill-rule="evenodd" clip-rule="evenodd" d="M25.8623 8.60692C25.9903 8.49065 26.1769 8.49705 26.2825 8.53438C26.5705 8.63678 26.5855 9.06345 26.818 9.21172C26.626 9.14345 26.4639 9.18825 26.2644 9.17438C26.0095 9.15625 25.8015 8.91838 25.8559 8.67092C25.9796 8.68478 26.1151 8.73705 26.2143 8.83092C26.3167 8.92798 26.4564 9.04425 26.5994 9.07945C26.4639 9.04212 26.3124 8.87998 26.2431 8.80425C26.2026 8.76052 26.0575 8.63785 25.8623 8.60692Z" fill="#76B82A"/>
<path fill-rule="evenodd" clip-rule="evenodd" d="M27.0732 9.54878C26.9452 9.50612 26.878 9.37492 26.863 9.28852C26.8225 9.05172 27.1105 8.87785 27.1222 8.66132C27.1489 8.81918 27.2417 8.91305 27.3089 9.05598C27.3942 9.23732 27.311 9.47092 27.1201 9.52852C27.0828 9.43892 27.0668 9.32585 27.0924 9.22132C27.1201 9.11358 27.1457 8.97278 27.1148 8.86185C27.1404 8.96958 27.0881 9.13492 27.0625 9.21172C27.0476 9.25758 27.0198 9.40372 27.0732 9.54878Z" fill="#76B82A"/>
<path fill-rule="evenodd" clip-rule="evenodd" d="M24.6945 9.62774C24.8939 9.52961 25.1222 9.60321 25.2406 9.68747C25.5617 9.91681 25.4283 10.4512 25.6641 10.7168C25.4507 10.5643 25.2342 10.5621 24.991 10.4736C24.6817 10.3605 24.5078 9.99254 24.6635 9.70454C24.8118 9.76534 24.9611 9.87841 25.0507 10.0299C25.1435 10.1867 25.2747 10.3808 25.4401 10.4747C25.2865 10.3797 25.1553 10.1259 25.0966 10.0064C25.0614 9.93814 24.9249 9.73547 24.6945 9.62774Z" fill="#76B82A"/>
<path fill-rule="evenodd" clip-rule="evenodd" d="M24.0693 8.7797C24.1824 8.58877 24.4149 8.52584 24.56 8.53224C24.9536 8.54824 25.1339 9.06877 25.4773 9.1637C25.2149 9.15304 25.0325 9.2693 24.7808 9.32797C24.4608 9.40264 24.1141 9.18824 24.0864 8.8629C24.2443 8.83304 24.4309 8.84584 24.5877 8.9237C24.7509 9.00477 24.9675 9.09544 25.1573 9.0837C24.976 9.08797 24.7285 8.94717 24.6133 8.87997C24.5461 8.83944 24.3221 8.7445 24.0693 8.7797Z" fill="#5D9021"/>
<path fill-rule="evenodd" clip-rule="evenodd" d="M24.4512 6.89387C24.3381 6.82027 24.3051 6.67734 24.3125 6.58987C24.3317 6.35094 24.6539 6.2528 24.7189 6.04694C24.7061 6.20694 24.7723 6.32 24.8021 6.47467C24.8395 6.672 24.7008 6.87787 24.5024 6.8864C24.4885 6.78934 24.5003 6.67627 24.5515 6.5824C24.6048 6.48427 24.6656 6.3552 24.6624 6.24C24.6613 6.34987 24.5685 6.49814 24.5248 6.5664C24.4981 6.6048 24.4352 6.7392 24.4512 6.89387Z" fill="#76B82A"/>
<path fill-rule="evenodd" clip-rule="evenodd" d="M24.545 11.0336C24.6592 10.7232 24.5141 10.3958 24.3712 10.2347C23.9818 9.79522 23.2117 10.0758 22.7808 9.76855C23.04 10.0608 23.0762 10.3819 23.2458 10.7275C23.4613 11.168 24.0341 11.3675 24.4352 11.0934C24.3221 10.8832 24.1322 10.6795 23.8933 10.5707C23.6458 10.4576 23.3386 10.2934 23.1744 10.063C23.3386 10.2763 23.7354 10.431 23.921 10.4992C24.0288 10.5398 24.3488 10.7083 24.545 11.0336Z" fill="#3D6315"/>
<path fill-rule="evenodd" clip-rule="evenodd" d="M25.6927 11.8742C25.5018 11.7483 25.4485 11.5062 25.4613 11.3579C25.4975 10.9536 26.0426 10.7936 26.1567 10.4448C26.1322 10.7147 26.2431 10.9078 26.2911 11.1702C26.3519 11.504 26.1151 11.8496 25.7791 11.8614C25.7567 11.6982 25.7781 11.5062 25.8666 11.3483C25.9583 11.184 26.0618 10.9664 26.0586 10.7702C26.0543 10.9568 25.8965 11.2054 25.8218 11.3195C25.777 11.3867 25.6682 11.6128 25.6927 11.8742Z" fill="#53821D"/>
<path fill-rule="evenodd" clip-rule="evenodd" d="M25.0454 12.1803C25.0166 11.9157 24.7948 11.7312 24.6337 11.6661C24.1953 11.488 23.7409 11.9659 23.3196 11.8987C23.6108 12.0171 23.7526 12.2347 23.998 12.4235C24.3105 12.6645 24.7948 12.6037 24.9857 12.2613C24.8289 12.1504 24.6188 12.0715 24.4086 12.0779C24.19 12.0853 23.9094 12.0757 23.7089 11.9691C23.9041 12.064 24.2454 12.0331 24.4033 12.0171C24.4961 12.0085 24.7873 12.0149 25.0454 12.1803Z" fill="#5D9021"/>
<path fill-rule="evenodd" clip-rule="evenodd" d="M24.1302 13.3056C24.207 13.1136 24.1227 12.9067 24.0363 12.8032C23.8016 12.5216 23.3152 12.6827 23.0518 12.4821C23.2086 12.6699 23.2246 12.8704 23.3238 13.0891C23.4496 13.3685 23.8038 13.5029 24.0587 13.3397C23.9915 13.2064 23.8774 13.0752 23.7302 13.0037C23.5776 12.9291 23.3888 12.8203 23.2907 12.6731C23.3888 12.8096 23.6342 12.9131 23.7483 12.9589C23.8176 12.9877 24.0139 13.0987 24.1302 13.3056Z" fill="#5D9021"/>
<path fill-rule="evenodd" clip-rule="evenodd" d="M28.4822 11.4891C28.5995 11.2501 28.8704 11.152 29.0443 11.1456C29.5168 11.1275 29.7814 11.7323 30.2006 11.8112C29.8859 11.8229 29.679 11.9797 29.3846 12.0747C29.0091 12.1952 28.5739 11.9723 28.511 11.5861C28.6955 11.536 28.9206 11.5317 29.1158 11.6107C29.3195 11.6917 29.5862 11.7792 29.8112 11.7461C29.5958 11.7696 29.2854 11.6245 29.1424 11.5552C29.0571 11.5147 28.7808 11.4229 28.4822 11.4891Z" fill="#AFCA0B"/>
<path fill-rule="evenodd" clip-rule="evenodd" d="M28.2251 10.6464C28.1312 10.4789 28.1845 10.2773 28.2528 10.1717C28.4363 9.88374 28.9045 9.97548 29.1243 9.76001C29.0016 9.95201 29.0101 10.1387 28.944 10.3531C28.8608 10.6261 28.5493 10.7925 28.2944 10.6709C28.3403 10.5397 28.4309 10.4053 28.5579 10.3221C28.6901 10.2347 28.8512 10.112 28.9248 9.96588C28.8491 10.1035 28.6357 10.2283 28.5355 10.2837C28.4768 10.3157 28.3083 10.4416 28.2251 10.6464Z" fill="#76B82A"/>
<path fill-rule="evenodd" clip-rule="evenodd" d="M26.2592 12.1824C26.4757 12.0875 26.7157 12.1771 26.8373 12.272C27.1669 12.5312 26.9995 13.0923 27.2373 13.3867C27.0176 13.2139 26.7872 13.2022 26.5333 13.0966C26.2101 12.9622 26.0427 12.5622 26.2219 12.2635C26.3765 12.336 26.5301 12.4619 26.6176 12.6272C26.7083 12.799 26.8395 13.0112 27.0101 13.119C26.8512 13.0102 26.7243 12.7339 26.6667 12.6048C26.6336 12.5302 26.4992 12.3083 26.2592 12.1824Z" fill="#76B82A"/>
<path fill-rule="evenodd" clip-rule="evenodd" d="M32.0907 11.9317C31.7099 11.6309 31.6416 11.1093 31.6971 10.7978C31.8475 9.94985 33.0272 9.71198 33.3323 8.99731C33.232 9.56265 33.4304 9.99145 33.4838 10.5536C33.552 11.2693 32.9867 11.9573 32.2752 11.921C32.2571 11.5712 32.3382 11.1701 32.5536 10.8522C32.7766 10.5216 33.0358 10.08 33.0656 9.66611C33.023 10.0597 32.6443 10.5557 32.4651 10.784C32.3584 10.9173 32.0875 11.3749 32.0907 11.9317Z" fill="#76B82A"/>
<path fill-rule="evenodd" clip-rule="evenodd" d="M30.0949 12.9493C29.9605 12.6485 30.0832 12.3147 30.2144 12.144C30.5717 11.6821 31.3557 11.9093 31.7632 11.5765C31.5253 11.8848 31.5093 12.2048 31.3653 12.5589C31.1808 13.0101 30.625 13.2469 30.209 13.0005C30.3082 12.7851 30.4832 12.5696 30.7125 12.4459C30.9504 12.3179 31.2448 12.1333 31.393 11.8944C31.2437 12.1173 30.8597 12.2965 30.6805 12.3765C30.5749 12.4235 30.2677 12.6133 30.0949 12.9493Z" fill="#5D9021"/>
<path fill-rule="evenodd" clip-rule="evenodd" d="M28.9589 12.6965C29.0133 12.4459 28.8661 12.2101 28.7381 12.1013C28.3914 11.8059 27.8304 12.1056 27.4656 11.9168C27.697 12.1131 27.76 12.3552 27.9274 12.6027C28.1408 12.9173 28.6026 13.008 28.88 12.7531C28.7701 12.6048 28.6016 12.4683 28.4074 12.4107C28.2048 12.3509 27.9509 12.2581 27.7994 12.0992C27.9488 12.2453 28.2709 12.32 28.4202 12.3531C28.5088 12.3733 28.7733 12.4683 28.9589 12.6965Z" fill="#76B82A"/>
<path fill-rule="evenodd" clip-rule="evenodd" d="M32.624 13.0731C32.7456 12.847 33.0102 12.7627 33.1776 12.7627C33.6331 12.7627 33.8667 13.3536 34.2667 13.4464C33.9638 13.4464 33.759 13.5904 33.471 13.6704C33.1051 13.7728 32.6944 13.5424 32.6475 13.168C32.8278 13.1264 33.0432 13.1307 33.2299 13.2139C33.423 13.2992 33.6768 13.3931 33.8944 13.3696C33.6864 13.3835 33.392 13.2331 33.2576 13.1606C33.1766 13.119 32.9142 13.0198 32.624 13.0731Z" fill="#AFCA0B"/>
<path fill-rule="evenodd" clip-rule="evenodd" d="M31.9231 14.2933C32.1087 14.0523 32.4351 14.0064 32.6303 14.0384C33.1626 14.1269 33.3204 14.864 33.7706 15.0507C33.4154 14.992 33.1487 15.1189 32.7967 15.1573C32.3487 15.2053 31.9135 14.8565 31.9316 14.4096C32.1503 14.3957 32.402 14.4437 32.6036 14.576C32.8127 14.7136 33.0911 14.8725 33.3503 14.8885C33.1039 14.8651 32.7903 14.6304 32.6463 14.5205C32.561 14.4544 32.273 14.2869 31.9231 14.2933Z" fill="#76B82A"/>
<path fill-rule="evenodd" clip-rule="evenodd" d="M27.0186 14.0128C27.0271 13.7301 27.2458 13.5157 27.4111 13.4336C27.8602 13.2085 28.3828 13.6768 28.8234 13.569C28.5247 13.7194 28.3935 13.9616 28.1492 14.1824C27.8378 14.464 27.3194 14.4405 27.089 14.0938C27.2458 13.9637 27.4612 13.8613 27.6852 13.8506C27.9178 13.84 28.2143 13.8069 28.418 13.6768C28.2196 13.7941 27.8559 13.7898 27.6863 13.7856C27.586 13.7845 27.2778 13.8165 27.0186 14.0128Z" fill="#53821D"/>
<path fill-rule="evenodd" clip-rule="evenodd" d="M26.2996 15.4069C26.5087 15.2736 26.7711 15.328 26.9119 15.4069C27.2959 15.6213 27.2138 16.2304 27.5071 16.496C27.2511 16.353 27.0111 16.3776 26.7316 16.3093C26.3743 16.2229 26.1375 15.8357 26.274 15.4976C26.4458 15.5466 26.626 15.6533 26.7434 15.8101C26.865 15.9733 27.0346 16.1717 27.2298 16.2549C27.0474 16.1685 26.8714 15.9029 26.7914 15.7781C26.7444 15.7056 26.5695 15.4987 26.2996 15.4069Z" fill="#76B82A"/>
<path fill-rule="evenodd" clip-rule="evenodd" d="M25.5307 14.1322C25.5083 13.9573 25.6224 13.8048 25.7152 13.7376C25.9691 13.5552 26.336 13.792 26.5973 13.6832C26.4277 13.8048 26.3712 13.9669 26.2421 14.1269C26.0779 14.3306 25.7568 14.3658 25.5808 14.176C25.6651 14.08 25.7877 13.9968 25.9243 13.968C26.0661 13.9392 26.2453 13.889 26.3584 13.7898C26.2475 13.8816 26.0235 13.9146 25.9189 13.9285C25.8571 13.937 25.6704 13.9872 25.5307 14.1322Z" fill="#76B82A"/>
<path fill-rule="evenodd" clip-rule="evenodd" d="M27.0539 14.8587C27.1702 14.7264 27.36 14.7104 27.472 14.736C27.7771 14.8064 27.8422 15.2384 28.096 15.3621C27.8934 15.3152 27.7334 15.3803 27.5286 15.3888C27.2672 15.4005 27.0283 15.1829 27.0539 14.9259C27.1808 14.9259 27.3248 14.9621 27.4368 15.0464C27.5531 15.1339 27.7078 15.2352 27.8582 15.2533C27.7163 15.2309 27.5424 15.0848 27.4635 15.0155C27.4176 14.9739 27.2566 14.8672 27.0539 14.8587Z" fill="#76B82A"/>
<path fill-rule="evenodd" clip-rule="evenodd" d="M24.9045 16.8107C25.1605 16.9184 25.2789 17.1947 25.2959 17.3749C25.3429 17.8656 24.7295 18.1781 24.6719 18.6187C24.641 18.2923 24.465 18.0864 24.3487 17.7845C24.2015 17.4005 24.4063 16.9344 24.8053 16.8448C24.8693 17.0347 24.8863 17.2683 24.8159 17.4763C24.7434 17.6928 24.6687 17.9755 24.7157 18.208C24.6783 17.9851 24.8106 17.6533 24.8746 17.4997C24.913 17.4112 24.9919 17.1168 24.9045 16.8107Z" fill="#76B82A"/>
<path fill-rule="evenodd" clip-rule="evenodd" d="M24.3754 15.0506C24.4394 14.8757 24.3573 14.6922 24.2762 14.6026C24.0565 14.3562 23.6245 14.5152 23.3823 14.3434C23.5285 14.5077 23.5498 14.6869 23.6447 14.881C23.7663 15.1285 24.0885 15.2384 24.3135 15.0837C24.2495 14.9664 24.1429 14.8522 24.0085 14.7914C23.8698 14.7285 23.697 14.6368 23.6042 14.5077C23.697 14.6272 23.9199 14.7136 24.0245 14.7509C24.0853 14.7733 24.2655 14.8682 24.3754 15.0506Z" fill="#76B82A"/>
<path fill-rule="evenodd" clip-rule="evenodd" d="M26.2006 18.0267C26.4577 17.9883 26.6284 17.7654 26.686 17.6054C26.8428 17.1712 26.3585 16.7467 26.4086 16.3328C26.3041 16.6219 26.0972 16.768 25.9222 17.0144C25.6993 17.328 25.7782 17.7984 26.1185 17.9712C26.2198 17.8144 26.2892 17.6064 26.2742 17.4016C26.2593 17.1883 26.2572 16.9142 26.3532 16.7147C26.2678 16.9088 26.3116 17.2395 26.334 17.3931C26.3468 17.4848 26.351 17.7686 26.2006 18.0267Z" fill="#3D6315"/>
<path fill-rule="evenodd" clip-rule="evenodd" d="M31.1308 16.9525C30.8822 16.8096 30.7969 16.512 30.8022 16.3243C30.8161 15.8155 31.4849 15.5744 31.6012 15.1307C31.5916 15.4688 31.7452 15.7024 31.8252 16.0267C31.9265 16.4395 31.6566 16.8896 31.2374 16.9301C31.1969 16.7275 31.2086 16.4864 31.3068 16.2816C31.4081 16.0693 31.5212 15.7888 31.503 15.5445C31.5126 15.7781 31.3345 16.1003 31.2492 16.2496C31.199 16.3371 31.0796 16.6283 31.1308 16.9525Z" fill="#76B82A"/>
<path fill-rule="evenodd" clip-rule="evenodd" d="M33.4773 16.7211C33.5029 16.3061 33.8357 16.0043 34.0821 15.8901C34.752 15.5819 35.4954 16.2955 36.1472 16.16C35.7013 16.3648 35.4965 16.7147 35.1274 17.0261C34.657 17.424 33.8976 17.3632 33.5754 16.8437C33.8122 16.6603 34.1333 16.5216 34.4629 16.5173C34.8042 16.5131 35.2416 16.4789 35.5466 16.2987C35.249 16.4608 34.7157 16.4373 34.4682 16.4224C34.3221 16.4149 33.8677 16.4469 33.4773 16.7211Z" fill="#5D9021"/>
<path fill-rule="evenodd" clip-rule="evenodd" d="M32.2156 19.1467C32.4012 18.9056 32.7276 18.8597 32.9238 18.8917C33.4561 18.9803 33.614 19.7173 34.0641 19.904C33.71 19.8453 33.4422 19.9723 33.0902 20.0107C32.6422 20.0587 32.207 19.7099 32.2252 19.2629C32.4438 19.2491 32.6966 19.2971 32.8972 19.4293C33.1062 19.5669 33.3846 19.7259 33.6438 19.7419C33.3974 19.7184 33.0838 19.4837 32.9398 19.3739C32.8534 19.3077 32.5644 19.1403 32.2156 19.1467Z" fill="#76B82A"/>
<path fill-rule="evenodd" clip-rule="evenodd" d="M28.9642 17.9253C28.7765 17.7888 28.7338 17.5424 28.7541 17.392C28.8096 16.9845 29.3674 16.8469 29.4986 16.5002C29.4613 16.7722 29.5658 16.9728 29.6021 17.2394C29.649 17.5797 29.393 17.92 29.0517 17.9157C29.0357 17.7493 29.0666 17.5562 29.1637 17.4005C29.264 17.2384 29.3792 17.0229 29.3845 16.8245C29.3717 17.0133 29.201 17.2576 29.12 17.3696C29.072 17.4357 28.9514 17.6597 28.9642 17.9253Z" fill="#3D6315"/>
<path fill-rule="evenodd" clip-rule="evenodd" d="M30.6551 17.0005C30.8577 17.1125 30.9324 17.3515 30.9303 17.5029C30.926 17.9147 30.3895 18.1205 30.3031 18.4811C30.3052 18.2069 30.1772 18.0203 30.1079 17.76C30.0193 17.4283 30.2305 17.0592 30.5687 17.0197C30.6049 17.1829 30.5985 17.3781 30.5228 17.5456C30.4439 17.7195 30.3575 17.9477 30.3756 18.1451C30.3649 17.9563 30.5036 17.6928 30.5697 17.5712C30.6092 17.4997 30.7009 17.2629 30.6551 17.0005Z" fill="#5D9021"/>
<path fill-rule="evenodd" clip-rule="evenodd" d="M28.1195 19.9627C28.3552 19.8336 28.4405 19.5552 28.4395 19.3792C28.4352 18.9013 27.8123 18.6635 27.712 18.2443C27.7152 18.5621 27.5669 18.7787 27.4859 19.0805C27.3824 19.4656 27.6277 19.8933 28.0203 19.9392C28.0629 19.7504 28.0555 19.5232 27.9669 19.3301C27.8752 19.1285 27.7749 18.864 27.7963 18.6347C27.7835 18.8533 27.9445 19.1595 28.0213 19.3003C28.0661 19.3845 28.1728 19.6587 28.1195 19.9627Z" fill="#AFCA0B"/>
<path fill-rule="evenodd" clip-rule="evenodd" d="M28.3733 18.0459C28.448 17.9307 28.4202 17.7845 28.3765 17.7056C28.2592 17.4912 27.921 17.5339 27.7749 17.3685C27.8528 17.5115 27.8378 17.6448 27.8741 17.8005C27.92 17.9989 28.1344 18.1333 28.3221 18.0597C28.2954 17.9637 28.2378 17.8635 28.1514 17.7973C28.0618 17.7291 27.952 17.6331 27.9072 17.5243C27.9541 17.6256 28.1002 17.7259 28.1696 17.7707C28.209 17.7973 28.3242 17.8955 28.3733 18.0459Z" fill="#76B82A"/>
<path fill-rule="evenodd" clip-rule="evenodd" d="M32.5056 16.4874C32.6784 16.4544 32.7883 16.2986 32.8224 16.1888C32.9163 15.8912 32.5771 15.617 32.5995 15.3354C32.5376 15.5338 32.4011 15.6384 32.2891 15.8101C32.1472 16.0288 32.2133 16.3445 32.448 16.4522C32.512 16.3434 32.5536 16.2005 32.5376 16.0618C32.5216 15.9178 32.512 15.7333 32.5717 15.5946C32.5195 15.728 32.5579 15.9509 32.5771 16.0544C32.5888 16.1173 32.5995 16.3093 32.5056 16.4874Z" fill="#76B82A"/>
<path fill-rule="evenodd" clip-rule="evenodd" d="M29.4176 20.0096C29.6725 19.7387 30.0757 19.7205 30.3104 19.7835C30.9493 19.9552 31.0539 20.8725 31.5797 21.1531C31.1541 21.0389 30.8128 21.1627 30.3797 21.1669C29.8272 21.1712 29.3387 20.6944 29.4133 20.1515C29.6821 20.1611 29.9829 20.2496 30.2123 20.4352C30.4501 20.6283 30.7712 20.8555 31.0859 20.9056C30.7883 20.8469 30.4331 20.5248 30.2709 20.3723C30.176 20.2827 29.8443 20.0437 29.4176 20.0096Z" fill="#5D9021"/>
<path fill-rule="evenodd" clip-rule="evenodd" d="M37.1851 19.8176C36.9472 19.3163 37.1403 18.7467 37.3557 18.4544C37.9403 17.6608 39.2715 18.0139 39.9456 17.4347C39.5563 17.9638 39.5435 18.5046 39.3131 19.1083C39.0197 19.8774 38.0917 20.2976 37.3792 19.8987C37.5371 19.5307 37.824 19.1606 38.2059 18.943C38.6027 18.7168 39.0912 18.3947 39.3312 17.9851C39.088 18.367 38.448 18.6848 38.1493 18.8278C37.9744 18.9131 37.4635 19.2448 37.1851 19.8176Z" fill="#76B82A"/>
<path fill-rule="evenodd" clip-rule="evenodd" d="M32.192 18.3467C32.1302 18.1408 32.2358 17.9349 32.335 17.8347C32.6038 17.5648 33.0923 17.776 33.3835 17.5925C33.2043 17.7728 33.168 17.9787 33.0464 18.1963C32.8907 18.4736 32.512 18.5813 32.2624 18.3883C32.3435 18.2571 32.4747 18.1312 32.6336 18.0704C32.7979 18.0064 33.0038 17.9115 33.119 17.7685C33.0038 17.9008 32.7414 17.9851 32.6187 18.0235C32.5451 18.0459 32.3318 18.1429 32.192 18.3467Z" fill="#5D9021"/>
<path fill-rule="evenodd" clip-rule="evenodd" d="M35.1115 19.7366C34.7617 19.6608 34.5472 19.3387 34.4822 19.1147C34.3062 18.5046 35.0091 17.9638 34.9792 17.392C35.0955 17.7984 35.3675 18.0171 35.5851 18.3723C35.8624 18.8235 35.7131 19.4624 35.2288 19.6694C35.103 19.4443 35.0262 19.152 35.0656 18.8715C35.1062 18.5803 35.1339 18.2038 35.0187 17.9211C35.1179 18.1952 35.0294 18.6464 34.9846 18.8555C34.959 18.9782 34.9281 19.3686 35.1115 19.7366Z" fill="#AFCA0B"/>
<path fill-rule="evenodd" clip-rule="evenodd" d="M36.3243 21.025C36.6454 20.6773 37.1563 20.6485 37.456 20.7253C38.2688 20.9344 38.4139 22.0992 39.0859 22.448C38.544 22.3082 38.112 22.4704 37.5616 22.481C36.8608 22.4949 36.2326 21.8944 36.3211 21.2053C36.6624 21.2138 37.0464 21.3216 37.3398 21.5541C37.6448 21.7952 38.0544 22.08 38.4544 22.1397C38.0758 22.0693 37.6203 21.665 37.4123 21.473C37.2907 21.361 36.8662 21.0634 36.3243 21.025Z" fill="#53821D"/>
<path fill-rule="evenodd" clip-rule="evenodd" d="M35.681 25.0838C36.0021 24.736 36.513 24.7072 36.8127 24.784C37.6255 24.9931 37.7706 26.1579 38.4426 26.5067C37.9007 26.367 37.4687 26.5291 36.9183 26.5398C36.2175 26.5526 35.5893 25.9531 35.6778 25.264C36.0191 25.2726 36.4031 25.3803 36.6965 25.6128C37.0015 25.8539 37.4122 26.1387 37.8122 26.1984C37.4335 26.128 36.9781 25.7227 36.7701 25.5318C36.6474 25.4198 36.2229 25.1222 35.681 25.0838Z" fill="#AFCA0B"/>
<path fill-rule="evenodd" clip-rule="evenodd" d="M28.0714 24.1024C28.1802 23.6416 27.9167 23.2021 27.6852 22.9973C27.0559 22.4416 26.0106 22.9738 25.345 22.6122C25.7642 22.9824 25.8719 23.4314 26.1716 23.8922C26.5535 24.48 27.4015 24.6634 27.9242 24.2037C27.7268 23.9264 27.4218 23.6682 27.0644 23.5562C26.6932 23.4389 26.2282 23.2586 25.9551 22.961C26.226 23.2352 26.8159 23.3856 27.0911 23.4506C27.2522 23.4901 27.7364 23.6746 28.0714 24.1024Z" fill="#53821D"/>
<path fill-rule="evenodd" clip-rule="evenodd" d="M29.152 23.7504C29.3824 23.5072 29.3782 23.1435 29.3099 22.9355C29.1232 22.3701 28.2923 22.3232 28.0139 21.8635C28.1387 22.24 28.0448 22.5536 28.063 22.9429C28.0864 23.44 28.5408 23.8549 29.0251 23.76C29.0027 23.5189 28.9078 23.2523 28.7296 23.056C28.544 22.8523 28.3232 22.5749 28.2624 22.2955C28.3307 22.56 28.6379 22.8629 28.783 23.0005C28.8683 23.0827 29.0998 23.3685 29.152 23.7504Z" fill="#76B82A"/>
<path fill-rule="evenodd" clip-rule="evenodd" d="M32.9174 21.1851C33.0966 20.9952 33.0934 20.7125 33.0401 20.5515C32.895 20.1109 32.2486 20.0747 32.031 19.7173C32.1281 20.0107 32.0545 20.2539 32.0694 20.5579C32.0875 20.944 32.4417 21.2672 32.8182 21.1936C32.8011 21.0059 32.7275 20.7989 32.5878 20.6453C32.4438 20.4864 32.2721 20.2709 32.2241 20.0533C32.2763 20.2592 32.5163 20.4949 32.6294 20.6027C32.6966 20.6656 32.8769 20.8885 32.9174 21.1851Z" fill="#76B82A"/>
<path fill-rule="evenodd" clip-rule="evenodd" d="M32.6167 22.8469C32.6903 22.5194 32.5015 22.209 32.3361 22.065C31.886 21.6736 31.1468 22.0586 30.6721 21.8058C30.9719 22.0661 31.0508 22.384 31.2673 22.7104C31.5415 23.1253 32.1452 23.2512 32.5132 22.9216C32.3713 22.7253 32.1527 22.545 31.8988 22.4672C31.6343 22.3861 31.3036 22.2613 31.1073 22.0512C31.3015 22.2442 31.7207 22.3477 31.9169 22.3914C32.0311 22.417 32.3767 22.545 32.6167 22.8469Z" fill="#3D6315"/>
<path fill-rule="evenodd" clip-rule="evenodd" d="M30.0278 25.12C29.7696 24.9056 29.7302 24.544 29.7739 24.3285C29.8923 23.744 30.7126 23.5989 30.9355 23.1093C30.8566 23.4986 30.9867 23.7984 31.0144 24.1888C31.0496 24.6858 30.6475 25.152 30.1547 25.1146C30.1483 24.8725 30.2112 24.5962 30.3648 24.3797C30.5248 24.1546 30.7115 23.8538 30.7392 23.568C30.703 23.8389 30.4331 24.177 30.3051 24.3306C30.2315 24.4224 30.0352 24.7338 30.0278 25.12Z" fill="#AFCA0B"/>
<path fill-rule="evenodd" clip-rule="evenodd" d="M28.6197 27.6693C28.848 27.2971 28.7445 26.8352 28.6005 26.5888C28.209 25.9189 27.1392 26.0843 26.6592 25.5744C26.9194 26.0203 26.8842 26.4448 27.0144 26.9365C27.1797 27.5627 27.8698 27.9691 28.4608 27.7163C28.368 27.4155 28.1749 27.1019 27.8944 26.8992C27.6032 26.6891 27.2469 26.3968 27.0933 26.0565C27.2512 26.3755 27.7258 26.6773 27.9477 26.8139C28.0778 26.8949 28.449 27.1979 28.6197 27.6693Z" fill="#AFCA0B"/>
<path fill-rule="evenodd" clip-rule="evenodd" d="M35.1606 23.4187C35.024 23.1936 35.088 22.9152 35.1755 22.7669C35.4134 22.3637 36.0587 22.4672 36.3488 22.1611C36.191 22.4288 36.2102 22.6848 36.1312 22.9813C36.0299 23.3589 35.6118 23.6011 35.2566 23.4475C35.3131 23.2661 35.4304 23.0773 35.6011 22.9568C35.7771 22.8309 35.9926 22.656 36.0864 22.4512C35.9904 22.6432 35.7035 22.8235 35.5691 22.9056C35.4902 22.9536 35.2651 23.1349 35.1606 23.4187Z" fill="#76B82A"/>
<path fill-rule="evenodd" clip-rule="evenodd" d="M34.2166 25.5499C34.5046 25.392 34.847 25.4859 35.0272 25.6021C35.5168 25.9189 35.3558 26.7168 35.7206 27.0944C35.3952 26.8832 35.0752 26.8949 34.7104 26.7808C34.2464 26.6357 33.9648 26.1024 34.175 25.6683C34.3979 25.7483 34.6262 25.9051 34.768 26.1227C34.9152 26.3488 35.1232 26.6261 35.3728 26.7531C35.1392 26.6229 34.9291 26.2571 34.8342 26.0853C34.7787 25.9829 34.5654 25.6939 34.2166 25.5499Z" fill="#76B82A"/>
<path fill-rule="evenodd" clip-rule="evenodd" d="M34.2849 31.9232C34.6849 31.7024 35.1627 31.8336 35.4134 31.9957C36.095 32.4373 35.8699 33.5477 36.3798 34.0736C35.9265 33.7792 35.4806 33.7962 34.9729 33.6362C34.3265 33.4336 33.935 32.6912 34.2273 32.0864C34.5377 32.1984 34.8555 32.4149 35.0539 32.7189C35.2598 33.0336 35.5478 33.4197 35.8966 33.5968C35.5713 33.4165 35.2779 32.9056 35.1457 32.6666C35.0678 32.5269 34.7702 32.1237 34.2849 31.9232Z" fill="#5D9021"/>
<path fill-rule="evenodd" clip-rule="evenodd" d="M31.936 32.4075C32.3723 32.544 32.608 32.9792 32.6646 33.2725C32.8171 34.0693 31.8603 34.6763 31.8326 35.408C31.7312 34.8768 31.4102 34.5664 31.1744 34.0907C30.8736 33.4837 31.1382 32.688 31.7771 32.48C31.9115 32.7808 31.9744 33.1616 31.8923 33.5136C31.807 33.8795 31.728 34.3552 31.8411 34.7296C31.7462 34.3691 31.9115 33.8048 31.9926 33.5445C32.0416 33.3909 32.127 32.8971 31.936 32.4075Z" fill="#AFCA0B"/>
<path fill-rule="evenodd" clip-rule="evenodd" d="M33.3364 32.6912C33.6436 32.7478 33.8399 33.023 33.9028 33.2171C34.0735 33.7451 33.4751 34.2368 33.5178 34.735C33.4047 34.383 33.1615 34.1995 32.961 33.8966C32.706 33.5104 32.8191 32.9483 33.2351 32.7542C33.3514 32.9472 33.426 33.2 33.3994 33.4454C33.3727 33.7003 33.3588 34.0299 33.4666 34.2742C33.3716 34.0384 33.4378 33.6416 33.4708 33.4571C33.49 33.3483 33.5071 33.007 33.3364 32.6912Z" fill="#76B82A"/>
<path fill-rule="evenodd" clip-rule="evenodd" d="M32.5941 29.0923C32.5493 28.7829 32.7466 28.5088 32.9109 28.3872C33.3557 28.0576 34.0138 28.4672 34.4725 28.2667C34.176 28.4864 34.0789 28.7755 33.856 29.0624C33.5712 29.4272 33.0026 29.5008 32.6858 29.168C32.832 28.9963 33.0474 28.8448 33.2885 28.7904C33.5392 28.7339 33.8549 28.6421 34.0522 28.4619C33.8592 28.6272 33.4624 28.6923 33.2778 28.7189C33.168 28.736 32.8384 28.8299 32.5941 29.0923Z" fill="#3D6315"/>
<path fill-rule="evenodd" clip-rule="evenodd" d="M32.6773 30.2293C32.9205 30.0341 33.2576 30.0651 33.4453 30.1451C33.9562 30.3616 33.936 31.136 34.3402 31.4293C34 31.2853 33.7024 31.3483 33.3418 31.3013C32.8832 31.2416 32.5322 30.7883 32.657 30.3467C32.8789 30.3851 33.1189 30.4939 33.2874 30.6752C33.4634 30.8629 33.7024 31.0891 33.9584 31.1669C33.7173 31.0837 33.4602 30.7744 33.344 30.6293C33.2757 30.544 33.0282 30.3072 32.6773 30.2293Z" fill="#76B82A"/>
<path fill-rule="evenodd" clip-rule="evenodd" d="M29.5916 31.9499C29.8753 32.0811 29.9969 32.3958 30.0097 32.5995C30.0439 33.1531 29.3409 33.4806 29.2588 33.9734C29.2364 33.6043 29.0476 33.3664 28.9292 33.023C28.7788 32.5856 29.0273 32.0694 29.4796 31.9851C29.5436 32.2006 29.5532 32.464 29.4668 32.6955C29.3772 32.9366 29.2812 33.2512 29.326 33.5147C29.2929 33.2619 29.4551 32.8939 29.5329 32.7243C29.5767 32.6251 29.678 32.2987 29.5916 31.9499Z" fill="#76B82A"/>
<path fill-rule="evenodd" clip-rule="evenodd" d="M28.8617 32.0704C28.9577 32.368 28.8084 32.6709 28.6676 32.8181C28.2836 33.2181 27.5668 32.9248 27.1487 33.1979C27.4047 32.9312 27.4505 32.6304 27.6233 32.3104C27.8431 31.9029 28.3913 31.7365 28.7593 32.0107C28.6441 32.2037 28.4575 32.3904 28.2292 32.4832C27.9913 32.5803 27.6948 32.7243 27.5316 32.9355C27.6948 32.7403 28.0745 32.6101 28.2527 32.5515C28.3551 32.5184 28.6644 32.3701 28.8617 32.0704Z" fill="#3D6315"/>
<path fill-rule="evenodd" clip-rule="evenodd" d="M30.9473 26.8544C31.1158 26.4128 31.5798 26.1962 31.887 26.1568C32.7201 26.049 33.2865 27.0762 34.0406 27.1509C33.4859 27.2224 33.1446 27.5338 32.6379 27.7472C31.9915 28.0202 31.1862 27.696 31.0123 27.0229C31.3323 26.9034 31.7291 26.8618 32.0875 26.9685C32.4609 27.0794 32.9462 27.1914 33.3398 27.0976C32.9622 27.1733 32.3894 26.9664 32.1249 26.8661C31.9702 26.8074 31.4657 26.688 30.9473 26.8544Z" fill="#AFCA0B"/>
</svg>
